<?xml version="1.0" encoding="UTF-8" standalone="no"?>
<!-- Created with Inkscape (http://www.inkscape.org/) -->

<svg
   xmlns:dc="http://purl.org/dc/elements/1.1/"
   xmlns:cc="http://creativecommons.org/ns#"
   xmlns:rdf="http://www.w3.org/1999/02/22-rdf-syntax-ns#"
   xmlns:svg="http://www.w3.org/2000/svg"
   xmlns="http://www.w3.org/2000/svg"
   xmlns:sodipodi="http://sodipodi.sourceforge.net/DTD/sodipodi-0.dtd"
   xmlns:inkscape="http://www.inkscape.org/namespaces/inkscape"
   width="64"
   height="16"
   id="svg2"
   version="1.1"
   inkscape:version="0.47 r22583"
   sodipodi:docname="entity_hardblocksmall_piece.svg"
   inkscape:export-filename="/home/cattaka/myfile/mydoc/eclipseAndroid/HungryCatBallMisc/resources/block/entity_hardblocksmall_piece.png"
   inkscape:export-xdpi="90"
   inkscape:export-ydpi="90">
  <defs
     id="defs4">
    <inkscape:perspective
       sodipodi:type="inkscape:persp3d"
       inkscape:vp_x="0 : 526.18109 : 1"
       inkscape:vp_y="0 : 1000 : 0"
       inkscape:vp_z="744.09448 : 526.18109 : 1"
       inkscape:persp3d-origin="372.04724 : 350.78739 : 1"
       id="perspective10" />
    <inkscape:perspective
       id="perspective3638"
       inkscape:persp3d-origin="0.5 : 0.33333333 : 1"
       inkscape:vp_z="1 : 0.5 : 1"
       inkscape:vp_y="0 : 1000 : 0"
       inkscape:vp_x="0 : 0.5 : 1"
       sodipodi:type="inkscape:persp3d" />
    <inkscape:perspective
       id="perspective3670"
       inkscape:persp3d-origin="0.5 : 0.33333333 : 1"
       inkscape:vp_z="1 : 0.5 : 1"
       inkscape:vp_y="0 : 1000 : 0"
       inkscape:vp_x="0 : 0.5 : 1"
       sodipodi:type="inkscape:persp3d" />
    <inkscape:perspective
       id="perspective3699"
       inkscape:persp3d-origin="0.5 : 0.33333333 : 1"
       inkscape:vp_z="1 : 0.5 : 1"
       inkscape:vp_y="0 : 1000 : 0"
       inkscape:vp_x="0 : 0.5 : 1"
       sodipodi:type="inkscape:persp3d" />
    <inkscape:perspective
       id="perspective3725"
       inkscape:persp3d-origin="0.5 : 0.33333333 : 1"
       inkscape:vp_z="1 : 0.5 : 1"
       inkscape:vp_y="0 : 1000 : 0"
       inkscape:vp_x="0 : 0.5 : 1"
       sodipodi:type="inkscape:persp3d" />
    <inkscape:perspective
       id="perspective3747"
       inkscape:persp3d-origin="0.5 : 0.33333333 : 1"
       inkscape:vp_z="1 : 0.5 : 1"
       inkscape:vp_y="0 : 1000 : 0"
       inkscape:vp_x="0 : 0.5 : 1"
       sodipodi:type="inkscape:persp3d" />
    <inkscape:perspective
       id="perspective3793"
       inkscape:persp3d-origin="0.5 : 0.33333333 : 1"
       inkscape:vp_z="1 : 0.5 : 1"
       inkscape:vp_y="0 : 1000 : 0"
       inkscape:vp_x="0 : 0.5 : 1"
       sodipodi:type="inkscape:persp3d" />
    <inkscape:perspective
       id="perspective3839"
       inkscape:persp3d-origin="0.5 : 0.33333333 : 1"
       inkscape:vp_z="1 : 0.5 : 1"
       inkscape:vp_y="0 : 1000 : 0"
       inkscape:vp_x="0 : 0.5 : 1"
       sodipodi:type="inkscape:persp3d" />
    <inkscape:perspective
       id="perspective3885"
       inkscape:persp3d-origin="0.5 : 0.33333333 : 1"
       inkscape:vp_z="1 : 0.5 : 1"
       inkscape:vp_y="0 : 1000 : 0"
       inkscape:vp_x="0 : 0.5 : 1"
       sodipodi:type="inkscape:persp3d" />
    <inkscape:perspective
       id="perspective3907"
       inkscape:persp3d-origin="0.5 : 0.33333333 : 1"
       inkscape:vp_z="1 : 0.5 : 1"
       inkscape:vp_y="0 : 1000 : 0"
       inkscape:vp_x="0 : 0.5 : 1"
       sodipodi:type="inkscape:persp3d" />
    <inkscape:perspective
       id="perspective3929"
       inkscape:persp3d-origin="0.5 : 0.33333333 : 1"
       inkscape:vp_z="1 : 0.5 : 1"
       inkscape:vp_y="0 : 1000 : 0"
       inkscape:vp_x="0 : 0.5 : 1"
       sodipodi:type="inkscape:persp3d" />
    <inkscape:perspective
       id="perspective5216"
       inkscape:persp3d-origin="0.5 : 0.33333333 : 1"
       inkscape:vp_z="1 : 0.5 : 1"
       inkscape:vp_y="0 : 1000 : 0"
       inkscape:vp_x="0 : 0.5 : 1"
       sodipodi:type="inkscape:persp3d" />
    <inkscape:perspective
       id="perspective5238"
       inkscape:persp3d-origin="0.5 : 0.33333333 : 1"
       inkscape:vp_z="1 : 0.5 : 1"
       inkscape:vp_y="0 : 1000 : 0"
       inkscape:vp_x="0 : 0.5 : 1"
       sodipodi:type="inkscape:persp3d" />
    <inkscape:perspective
       id="perspective5260"
       inkscape:persp3d-origin="0.5 : 0.33333333 : 1"
       inkscape:vp_z="1 : 0.5 : 1"
       inkscape:vp_y="0 : 1000 : 0"
       inkscape:vp_x="0 : 0.5 : 1"
       sodipodi:type="inkscape:persp3d" />
    <inkscape:perspective
       id="perspective5425"
       inkscape:persp3d-origin="0.5 : 0.33333333 : 1"
       inkscape:vp_z="1 : 0.5 : 1"
       inkscape:vp_y="0 : 1000 : 0"
       inkscape:vp_x="0 : 0.5 : 1"
       sodipodi:type="inkscape:persp3d" />
    <inkscape:perspective
       id="perspective5447"
       inkscape:persp3d-origin="0.5 : 0.33333333 : 1"
       inkscape:vp_z="1 : 0.5 : 1"
       inkscape:vp_y="0 : 1000 : 0"
       inkscape:vp_x="0 : 0.5 : 1"
       sodipodi:type="inkscape:persp3d" />
    <inkscape:perspective
       id="perspective5447-0"
       inkscape:persp3d-origin="0.5 : 0.33333333 : 1"
       inkscape:vp_z="1 : 0.5 : 1"
       inkscape:vp_y="0 : 1000 : 0"
       inkscape:vp_x="0 : 0.5 : 1"
       sodipodi:type="inkscape:persp3d" />
    <inkscape:perspective
       id="perspective5447-3"
       inkscape:persp3d-origin="0.5 : 0.33333333 : 1"
       inkscape:vp_z="1 : 0.5 : 1"
       inkscape:vp_y="0 : 1000 : 0"
       inkscape:vp_x="0 : 0.5 : 1"
       sodipodi:type="inkscape:persp3d" />
    <inkscape:perspective
       id="perspective5447-2"
       inkscape:persp3d-origin="0.5 : 0.33333333 : 1"
       inkscape:vp_z="1 : 0.5 : 1"
       inkscape:vp_y="0 : 1000 : 0"
       inkscape:vp_x="0 : 0.5 : 1"
       sodipodi:type="inkscape:persp3d" />
    <inkscape:perspective
       id="perspective5447-9"
       inkscape:persp3d-origin="0.5 : 0.33333333 : 1"
       inkscape:vp_z="1 : 0.5 : 1"
       inkscape:vp_y="0 : 1000 : 0"
       inkscape:vp_x="0 : 0.5 : 1"
       sodipodi:type="inkscape:persp3d" />
  </defs>
  <sodipodi:namedview
     id="base"
     pagecolor="#ff00ff"
     bordercolor="#666666"
     borderopacity="1.0"
     inkscape:pageopacity="0"
     inkscape:pageshadow="2"
     inkscape:zoom="11.2"
     inkscape:cx="23.273024"
     inkscape:cy="16.5284"
     inkscape:document-units="px"
     inkscape:current-layer="layer1"
     showgrid="true"
     inkscape:window-width="1024"
     inkscape:window-height="695"
     inkscape:window-x="0"
     inkscape:window-y="25"
     inkscape:window-maximized="1"
     inkscape:snap-grids="true">
    <inkscape:grid
       type="xygrid"
       id="grid2816"
       empspacing="5"
       visible="true"
       enabled="true"
       snapvisiblegridlinesonly="true"
       spacingx="0.8px"
       spacingy="0.8px"
       color="#0000ff"
       opacity="0.1254902"
       dotted="false" />
  </sodipodi:namedview>
  <metadata
     id="metadata7">
    <rdf:RDF>
      <cc:Work
         rdf:about="">
        <dc:format>image/svg+xml</dc:format>
        <dc:type
           rdf:resource="http://purl.org/dc/dcmitype/StillImage" />
        <dc:title></dc:title>
      </cc:Work>
    </rdf:RDF>
  </metadata>
  <g
     inkscape:label="レイヤー 1"
     inkscape:groupmode="layer"
     id="layer1"
     transform="translate(0,-1036.3622)">
    <path
       style="fill:#ac9393;stroke:none"
       d="m 22.65625,1037.706 c -2.004905,0.01 -4.119535,0.1458 -5.9375,0.25 -4.830113,0.2767 -13.338296,-1.0349 -14.5625,0.8125 -1.26115004,1.9029 -0.7905317,8.1892 -0.75,12.9375 l 14.78125,-0.2813 -2.15625,-2.1562 10.125,1.7812 6.34375,-0.2812 c 0.05386,-4.394 0.24327,-9.0781 -0.78125,-11.2188 -0.717884,-1.5 -3.720992,-1.8536 -7.0625,-1.8437 z"
       id="path5517" />
    <path
       style="fill:#ac9393;stroke:none"
       d="m 40.75,1037.1747 5.03125,1.7813 -12.40625,-0.375 c -0.06106,4.2055 -0.194601,8.5547 0.78125,10.5937 1.148622,2.4 4.977778,1.8122 9.96875,1.5938 4.835437,-0.2116 16.445136,0.9234 17.59375,-0.8125 1.133103,-1.7125 0.904073,-6.9375 0.8125,-11.4375 l -6.78125,-0.8438 -8.4375,0 -6.5625,-0.5 z"
       id="path2820-5-2" />
    <path
       style="fill:#916f6f;stroke:none"
       d="m 29.0625,1038.831 c -0.206054,0.753 -0.350419,1.7365 -0.46875,3.125 -0.167711,1.9679 0.01264,5.4048 0.15625,8.9062 l 1.75,-0.094 c 0.05438,-4.3961 0.274521,-9.0781 -0.75,-11.2188 -0.138266,-0.2889 -0.393091,-0.509 -0.6875,-0.7187 z"
       id="path5513" />
    <path
       style="fill:#916f6f;stroke:none"
       d="m 60.84375,1038.2997 c 0.05509,3.173 -0.04073,6.0712 -0.65625,7.6563 -1.502777,3.8697 -6.069658,1.1693 -11.09375,2.4062 -7.178325,1.7673 -12.582746,-3.2003 -14.53125,-0.8125 -0.251413,0.3081 -0.474706,0.6234 -0.65625,0.9375 0.07589,0.2439 0.153693,0.4863 0.25,0.6875 1.148623,2.4 4.977778,1.8122 9.96875,1.5938 4.835437,-0.2116 16.476377,0.9234 17.625,-0.8125 1.133103,-1.7125 0.873441,-6.9388 0.78125,-11.4375 l -1.6875,-0.2188 z"
       id="path3660-4-1" />
    <path
       style="fill:#c8b7b7;stroke:none"
       d="m 22.5625,1037.7997 c -2.004903,0.01 -4.150784,0.1458 -5.96875,0.25 -4.830123,0.2767 -13.307056,-1.0661 -14.53125,0.7813 -1.25584137,1.8949 -0.8252759,8.134 -0.78125,12.875 L 2.75,1051.675 c -0.1705817,-4.0107 -0.2301084,-7.626 0.46875,-9.625 0.745557,-2.1326 4.989941,0.783 9.875,-1.1562 5.108701,-2.0281 11.188141,2.024 15.375,0.3437 0.395535,-0.1588 0.861918,-0.7485 1.1875,-1.5 -0.01255,-0.028 -0.0183,-0.067 -0.03125,-0.094 -0.717891,-1.5 -3.720996,-1.8537 -7.0625,-1.8438 z"
       id="path5509" />
    <path
       style="fill:#c8b7b7;stroke:none"
       d="m 33.25,1038.581 c -0.06129,4.2276 -0.168201,8.6071 0.8125,10.6562 0.12985,0.2713 0.30414,0.5188 0.5,0.7188 0.123706,-0.4708 0.225861,-1.0104 0.28125,-1.5313 0.305928,-2.8765 0.181038,-6.3643 0.03125,-9.7812 l -1.625,-0.062 z"
       id="path2820-1-2-9" />
    <path
       style="fill:#261813;fill-opacity:0.75;stroke:none"
       d="m 21.46875,1044.331 c -2.472354,0.1141 -7.210415,3.6705 -11,3.8437 -4.062904,0.1857 -9.0625,-0.625 -9.0625,-0.625 l 0,1.625 c 0,0 6.780901,0.3962 8.8125,0 0.703901,-0.1373 2.471001,0.2739 4.5625,0.8438 l -0.75,-0.75 5.6875,1 c -3.395951,-0.8481 -6.812588,-1.671 -6.0625,-1.9063 1.537735,-0.4822 9.268974,-3.828 8.28125,-4 -0.143577,-0.025 -0.303926,-0.039 -0.46875,-0.031 z"
       id="path3687-1-3-3" />
    <path
       style="fill:#261813;fill-opacity:0.75;stroke:none"
       d="m 62.526856,1045.7758 c 0,0 -2.567866,-0.5834 -7.153233,-0.4621 -4.644969,0.1229 -11.359148,3.8043 -8.489883,1.9799 3.020255,-1.9204 5.938381,-3.194 9.053932,-2.9639 3.007954,0.2222 6.589184,-0.1539 6.589184,-0.1539 l 0,1.6 z"
       id="path3713-0-7-5" />
    <path
       style="fill:#261813;fill-opacity:0.75;stroke:none"
       d="m 41.01893,1043.1234 c -2.034045,0.7827 -7.506711,4.1283 -7.506711,4.1283 0,0 -0.02903,-1.0558 -0.02903,-1.0558 0,0 4.688979,-2.5052 7.729262,-3.946 2.922488,-1.385 9.115933,-1.6635 6.204599,-0.8682 -2.911334,0.7953 -4.36407,0.9589 -6.398099,1.7417 z"
       id="path3713-0-7-5-5" />
  </g>
</svg>
