<?xml version="1.0" encoding="UTF-8" standalone="no"?>
<!-- Created with Inkscape (http://www.inkscape.org/) -->

<svg
   xmlns:dc="http://purl.org/dc/elements/1.1/"
   xmlns:cc="http://creativecommons.org/ns#"
   xmlns:rdf="http://www.w3.org/1999/02/22-rdf-syntax-ns#"
   xmlns:svg="http://www.w3.org/2000/svg"
   xmlns="http://www.w3.org/2000/svg"
   xmlns:sodipodi="http://sodipodi.sourceforge.net/DTD/sodipodi-0.dtd"
   xmlns:inkscape="http://www.inkscape.org/namespaces/inkscape"
   width="128"
   height="16"
   id="svg2"
   version="1.1"
   inkscape:version="0.47 r22583"
   sodipodi:docname="entity_softblock_piece.svg"
   inkscape:export-filename="/home/cattaka/myfile/mydoc/eclipseAndroid/HungryCatBallMisc/resources/block/entity_softblock_piece.png"
   inkscape:export-xdpi="90"
   inkscape:export-ydpi="90">
  <defs
     id="defs4">
    <inkscape:perspective
       sodipodi:type="inkscape:persp3d"
       inkscape:vp_x="0 : 526.18109 : 1"
       inkscape:vp_y="0 : 1000 : 0"
       inkscape:vp_z="744.09448 : 526.18109 : 1"
       inkscape:persp3d-origin="372.04724 : 350.78739 : 1"
       id="perspective10" />
    <inkscape:perspective
       id="perspective3638"
       inkscape:persp3d-origin="0.5 : 0.33333333 : 1"
       inkscape:vp_z="1 : 0.5 : 1"
       inkscape:vp_y="0 : 1000 : 0"
       inkscape:vp_x="0 : 0.5 : 1"
       sodipodi:type="inkscape:persp3d" />
    <inkscape:perspective
       id="perspective3670"
       inkscape:persp3d-origin="0.5 : 0.33333333 : 1"
       inkscape:vp_z="1 : 0.5 : 1"
       inkscape:vp_y="0 : 1000 : 0"
       inkscape:vp_x="0 : 0.5 : 1"
       sodipodi:type="inkscape:persp3d" />
    <inkscape:perspective
       id="perspective3699"
       inkscape:persp3d-origin="0.5 : 0.33333333 : 1"
       inkscape:vp_z="1 : 0.5 : 1"
       inkscape:vp_y="0 : 1000 : 0"
       inkscape:vp_x="0 : 0.5 : 1"
       sodipodi:type="inkscape:persp3d" />
    <inkscape:perspective
       id="perspective3725"
       inkscape:persp3d-origin="0.5 : 0.33333333 : 1"
       inkscape:vp_z="1 : 0.5 : 1"
       inkscape:vp_y="0 : 1000 : 0"
       inkscape:vp_x="0 : 0.5 : 1"
       sodipodi:type="inkscape:persp3d" />
    <inkscape:perspective
       id="perspective3747"
       inkscape:persp3d-origin="0.5 : 0.33333333 : 1"
       inkscape:vp_z="1 : 0.5 : 1"
       inkscape:vp_y="0 : 1000 : 0"
       inkscape:vp_x="0 : 0.5 : 1"
       sodipodi:type="inkscape:persp3d" />
    <inkscape:perspective
       id="perspective3793"
       inkscape:persp3d-origin="0.5 : 0.33333333 : 1"
       inkscape:vp_z="1 : 0.5 : 1"
       inkscape:vp_y="0 : 1000 : 0"
       inkscape:vp_x="0 : 0.5 : 1"
       sodipodi:type="inkscape:persp3d" />
    <inkscape:perspective
       id="perspective3839"
       inkscape:persp3d-origin="0.5 : 0.33333333 : 1"
       inkscape:vp_z="1 : 0.5 : 1"
       inkscape:vp_y="0 : 1000 : 0"
       inkscape:vp_x="0 : 0.5 : 1"
       sodipodi:type="inkscape:persp3d" />
    <inkscape:perspective
       id="perspective3885"
       inkscape:persp3d-origin="0.5 : 0.33333333 : 1"
       inkscape:vp_z="1 : 0.5 : 1"
       inkscape:vp_y="0 : 1000 : 0"
       inkscape:vp_x="0 : 0.5 : 1"
       sodipodi:type="inkscape:persp3d" />
    <inkscape:perspective
       id="perspective3907"
       inkscape:persp3d-origin="0.5 : 0.33333333 : 1"
       inkscape:vp_z="1 : 0.5 : 1"
       inkscape:vp_y="0 : 1000 : 0"
       inkscape:vp_x="0 : 0.5 : 1"
       sodipodi:type="inkscape:persp3d" />
    <inkscape:perspective
       id="perspective3929"
       inkscape:persp3d-origin="0.5 : 0.33333333 : 1"
       inkscape:vp_z="1 : 0.5 : 1"
       inkscape:vp_y="0 : 1000 : 0"
       inkscape:vp_x="0 : 0.5 : 1"
       sodipodi:type="inkscape:persp3d" />
    <inkscape:perspective
       id="perspective4121"
       inkscape:persp3d-origin="0.5 : 0.33333333 : 1"
       inkscape:vp_z="1 : 0.5 : 1"
       inkscape:vp_y="0 : 1000 : 0"
       inkscape:vp_x="0 : 0.5 : 1"
       sodipodi:type="inkscape:persp3d" />
    <inkscape:perspective
       id="perspective4121-9"
       inkscape:persp3d-origin="0.5 : 0.33333333 : 1"
       inkscape:vp_z="1 : 0.5 : 1"
       inkscape:vp_y="0 : 1000 : 0"
       inkscape:vp_x="0 : 0.5 : 1"
       sodipodi:type="inkscape:persp3d" />
    <inkscape:perspective
       id="perspective4121-0"
       inkscape:persp3d-origin="0.5 : 0.33333333 : 1"
       inkscape:vp_z="1 : 0.5 : 1"
       inkscape:vp_y="0 : 1000 : 0"
       inkscape:vp_x="0 : 0.5 : 1"
       sodipodi:type="inkscape:persp3d" />
    <inkscape:perspective
       id="perspective4121-7"
       inkscape:persp3d-origin="0.5 : 0.33333333 : 1"
       inkscape:vp_z="1 : 0.5 : 1"
       inkscape:vp_y="0 : 1000 : 0"
       inkscape:vp_x="0 : 0.5 : 1"
       sodipodi:type="inkscape:persp3d" />
    <inkscape:perspective
       id="perspective4121-2"
       inkscape:persp3d-origin="0.5 : 0.33333333 : 1"
       inkscape:vp_z="1 : 0.5 : 1"
       inkscape:vp_y="0 : 1000 : 0"
       inkscape:vp_x="0 : 0.5 : 1"
       sodipodi:type="inkscape:persp3d" />
    <inkscape:perspective
       id="perspective4121-99"
       inkscape:persp3d-origin="0.5 : 0.33333333 : 1"
       inkscape:vp_z="1 : 0.5 : 1"
       inkscape:vp_y="0 : 1000 : 0"
       inkscape:vp_x="0 : 0.5 : 1"
       sodipodi:type="inkscape:persp3d" />
    <inkscape:perspective
       id="perspective4121-3"
       inkscape:persp3d-origin="0.5 : 0.33333333 : 1"
       inkscape:vp_z="1 : 0.5 : 1"
       inkscape:vp_y="0 : 1000 : 0"
       inkscape:vp_x="0 : 0.5 : 1"
       sodipodi:type="inkscape:persp3d" />
    <inkscape:perspective
       id="perspective4121-77"
       inkscape:persp3d-origin="0.5 : 0.33333333 : 1"
       inkscape:vp_z="1 : 0.5 : 1"
       inkscape:vp_y="0 : 1000 : 0"
       inkscape:vp_x="0 : 0.5 : 1"
       sodipodi:type="inkscape:persp3d" />
    <inkscape:perspective
       id="perspective4121-6"
       inkscape:persp3d-origin="0.5 : 0.33333333 : 1"
       inkscape:vp_z="1 : 0.5 : 1"
       inkscape:vp_y="0 : 1000 : 0"
       inkscape:vp_x="0 : 0.5 : 1"
       sodipodi:type="inkscape:persp3d" />
    <inkscape:perspective
       id="perspective4121-67"
       inkscape:persp3d-origin="0.5 : 0.33333333 : 1"
       inkscape:vp_z="1 : 0.5 : 1"
       inkscape:vp_y="0 : 1000 : 0"
       inkscape:vp_x="0 : 0.5 : 1"
       sodipodi:type="inkscape:persp3d" />
  </defs>
  <sodipodi:namedview
     id="base"
     pagecolor="#ff00ff"
     bordercolor="#666666"
     borderopacity="1.0"
     inkscape:pageopacity="0"
     inkscape:pageshadow="2"
     inkscape:zoom="5.6"
     inkscape:cx="81.951079"
     inkscape:cy="8.4817028"
     inkscape:document-units="px"
     inkscape:current-layer="layer1"
     showgrid="true"
     inkscape:window-width="1024"
     inkscape:window-height="695"
     inkscape:window-x="1280"
     inkscape:window-y="25"
     inkscape:window-maximized="1"
     inkscape:snap-grids="true">
    <inkscape:grid
       type="xygrid"
       id="grid2816"
       empspacing="5"
       visible="true"
       enabled="true"
       snapvisiblegridlinesonly="true"
       spacingx="0.8px"
       spacingy="0.8px"
       color="#0000ff"
       opacity="0.1254902"
       dotted="false" />
  </sodipodi:namedview>
  <metadata
     id="metadata7">
    <rdf:RDF>
      <cc:Work
         rdf:about="">
        <dc:format>image/svg+xml</dc:format>
        <dc:type
           rdf:resource="http://purl.org/dc/dcmitype/StillImage" />
        <dc:title></dc:title>
      </cc:Work>
    </rdf:RDF>
  </metadata>
  <g
     inkscape:label="レイヤー 1"
     inkscape:groupmode="layer"
     id="layer1"
     transform="translate(0,-1036.3622)">
    <path
       style="fill:#d38d5f;stroke:none"
       d="m 46.03125,1037.706 c -3.837352,0.01 -7.834174,0.1191 -11.40625,0.2187 l -0.6875,2.5 1.40625,2.3125 -1.25,2.5 0.71875,1.4375 -0.71875,1.9688 -0.6875,2.3125 21.40625,-2.9375 -5.25,3.2187 12.875,-0.5625 c 0.115733,-4.3667 0.500472,-8.9995 -1.625,-11.125 -1.5,-1.5 -7.799293,-1.8536 -14.78125,-1.8437 z"
       id="path4384" />
    <path
       style="fill:#d38d5f;stroke:none"
       d="m 11.28125,1037.7685 c -4.0269788,0.052 -7.13453,0.3072 -8.09375,1 -2.43629569,1.7594 -1.7999078,7.296 -1.625,11.875 l 19.34375,-2 -2.96875,1.9687 12.25,-0.375 -0.90625,-1.4062 0.90625,-1.7813 c 0,0 -0.151228,-0.032 -0.34375,-0.094 -0.388393,-0.1228 -0.995536,-0.355 -1.25,-0.6563 -0.09542,-0.113 -0.134556,-0.2455 -0.09375,-0.375 0.01373,-0.043 0.02902,-0.08 0.0625,-0.125 0.130041,-0.1734 0.329192,-0.3828 0.53125,-0.5937 0.005,-0.01 -0.005,-0.026 0,-0.031 0.62779,-0.6529 1.4375,-1.3437 1.4375,-1.3437 l -1.78125,-3.4063 0.65625,-2.4375 c -5.807111,-0.027 -12.783276,-0.2883 -18.125,-0.2187 z"
       id="path4382" />
    <path
       style="fill:#d38d5f;stroke:none"
       d="m 94.187502,1036.7373 -14.28125,3.0625 2.9375,-2.25 -17.28125,0.625 c -0.119463,4.3298 -0.480146,8.8949 1.625,11 2.4,2.4 10.38406,1.8122 20.8125,1.5938 1.262935,-0.026 2.73902,-0.039 4.375,-0.031 l 1.625,-2.375 -1.4375,-1.7812 1.78125,-1.4375 -1.0625,-1.5938 1.96875,-2.3437 -1.0625,-4.4688 z"
       id="path4380" />
    <path
       style="fill:#d38d5f;stroke:none"
       d="m 126.40625,1037.0498 c -0.38701,0.01 -0.89131,0.025 -1.3125,0.031 -5.80344,0.087 -14.3125,0.031 -14.3125,0.031 l 0.375,1.0625 -14.124998,-0.875 2.3125,3.5625 -1.9375,0.875 1.78125,1.8125 -2.15625,2.8438 1.625,1.9687 -1.625,1.4375 0.9375,1 c 11.163338,0.1534 25.058298,0.4476 26.843748,-0.8437 2.62413,-1.8981 1.6842,-8.1641 1.59375,-12.9063 z"
       id="path2820-5-2" />
    <path
       style="fill:#c87137;stroke:none"
       d="m 59.40625,1038.831 c -0.43055,0.753 -0.75275,1.7365 -1,3.125 -0.349346,1.9618 0.0439,5.3851 0.34375,8.875 l 3.6875,-0.1563 c 0.116855,-4.3689 0.500472,-8.9995 -1.625,-11.125 -0.2889,-0.2889 -0.79109,-0.509 -1.40625,-0.7187 z"
       id="path4376" />
    <path
       style="fill:#c87137;stroke:none"
       d="m 126.40625,1037.0498 c -1.01287,0.02 -2.26694,0.02 -3.46875,0.031 0.2172,3.6345 0.10506,7.0894 -1.34375,8.875 -3.1181,3.8427 -12.55772,1.2007 -22.968748,2.375 l 0.03125,0.031 -1.625,1.4375 0.9375,1 c 11.166888,0.1499 25.058298,0.4476 26.843748,-0.8437 2.62413,-1.8981 1.68473,-8.1646 1.59375,-12.9063 z"
       id="path4374" />
    <path
       style="fill:#c87137;stroke:none"
       d="m 71.031252,1046.8936 c -1.250433,0.023 -2.267876,0.2085 -3.03125,0.6562 -0.52532,0.3081 -0.96442,0.6234 -1.34375,0.9375 0.1586,0.2439 0.33001,0.4863 0.53125,0.6875 2.4,2.4 10.38406,1.8122 20.8125,1.5938 1.262935,-0.026 2.738678,-0.039 4.375,-0.031 l 1.40625,-2.0312 c -10.021682,0.3525 -18.037637,-1.9008 -22.75,-1.8125 z"
       id="path3660-4-1" />
    <path
       style="fill:#deaa87;stroke:none"
       d="m 45.8125,1037.7997 c -3.768095,0.01 -7.692529,0.1207 -11.21875,0.2188 l -0.625,2.3125 c 8.608939,0.159 17.569085,2.1834 24.21875,0.9062 0.82646,-0.1588 1.78845,-0.7485 2.46875,-1.5 -0.0262,-0.028 -0.0355,-0.067 -0.0625,-0.094 -1.5,-1.5 -7.79929,-1.8537 -14.78125,-1.8438 z"
       id="path4370" />
    <path
       style="fill:#deaa87;stroke:none"
       d="m 11.0625,1037.8622 c -4.0280774,0.049 -7.13453,0.276 -8.09375,0.9688 -2.42483391,1.7511 -1.8043627,7.2473 -1.625,11.8125 l 2.96875,-0.2813 c -0.2584208,-3.4683 -0.2341359,-6.5375 1.0625,-8.3125 1.55782,-2.1326 10.41785,0.783 20.625,-1.1562 0.909588,-0.1729 1.845085,-0.2832 2.78125,-0.375 l -0.03125,-0.094 0.625,-2.3437 c -5.844943,-0.024 -12.910983,-0.2847 -18.3125,-0.2188 z"
       id="path4368" />
    <path
       style="fill:#deaa87;stroke:none"
       d="m 68.625002,1038.0811 -3.28125,0.125 c -0.119753,4.3413 -0.485228,8.921 1.625,11.0312 0.27132,0.2713 0.62201,0.5188 1.03125,0.7188 0.25848,-0.4708 0.478,-1.0104 0.59375,-1.5313 0.674562,-3.0355 0.368791,-6.7485 0.03125,-10.3437 z"
       id="path2820-1-2-9" />
    <path
       style="fill:#a05a2c;fill-opacity:0.49803922;stroke:none"
       d="m 1.6,1042.7622 c 0,0 15.2,-0.8 24.8,0 8.25524,0.688 -24.8,1.6 -24.8,1.6 l 0,-1.6 z"
       id="path3687-1-3" />
    <path
       style="fill:#a05a2c;fill-opacity:0.49803922;stroke:none"
       d="m 90.406252,1037.9561 c -0.537528,0 -1.420692,0.023 -2.0625,0.031 l -4.21875,0.9063 c 5.729491,-0.4999 9.818623,-0.9375 6.28125,-0.9375 z"
       id="path4362" />
    <path
       style="fill:#a05a2c;fill-opacity:0.49803922;stroke:none"
       d="m 82.093752,1038.1436 c -7.700034,0.2343 -16.5,0.625 -16.5,0.625 l 0,1.5937 c 0,0 7.96828,-0.569 15.09375,-1.1562 l 1.40625,-1.0625 z"
       id="path3689-1-7" />
    <path
       style="fill:#a05a2c;fill-opacity:0.49803922;stroke:none"
       d="m 126.40625,1042.7686 c 0,0 -14.02983,0.4697 -27.437498,1.0625 l -0.59375,0.8125 c 11.887328,-0.064 28.031248,-0.2813 28.031248,-0.2813 l 0,-1.5937 z"
       id="path4358" />
    <path
       style="fill:#a05a2c;fill-opacity:0.49803922;stroke:none"
       d="m 93.656252,1044.0811 c -1.894335,0.09 -3.923602,0.19 -5.65625,0.2812 -1.173376,0.062 -1.78492,0.116 -1.9375,0.1563 0.190449,0.092 3.45086,0.1335 7.9375,0.125 l -0.34375,-0.5625 z"
       id="path3713-0-7" />
    <path
       style="fill:#a05a2c;fill-opacity:0.49803922;stroke:none"
       d="m 62.40625,1049.1747 c 0,0 -6.097127,0.2374 -10.15625,0.4063 l -1.9375,1.1875 9.78125,0 2.3125,-0.094 0,-1.5 z"
       id="path4354" />
    <path
       style="fill:#a05a2c;fill-opacity:0.49803922;stroke:none"
       d="m 39,1050.1747 c -1.955536,0.095 -4.100447,0.2022 -5.4375,0.2813 l -0.09375,0.3125 1.3125,0 L 39,1050.1747 z"
       id="path3715-2-2" />
    <path
       style="fill:#261813;fill-opacity:0.75;stroke:none"
       d="m 43.53125,1044.331 c -2.287888,0.051 -5.52469,0.7859 -9.09375,1.5937 l 0.375,0.75 -0.0625,0.2188 c 5.326375,-1.1102 11.036192,-2.4241 9.75,-2.5313 -0.3,-0.025 -0.624356,-0.039 -0.96875,-0.031 z"
       id="path4350" />
    <path
       style="fill:#261813;fill-opacity:0.75;stroke:none"
       d="m 29.8125,1046.956 c -3.142557,0.6458 -6.347115,1.1545 -9.28125,1.2187 -8.48929,0.1857 -18.9375,-0.625 -18.9375,-0.625 l 0,1.625 c 0,0 7.0426341,0.18 12.6875,0.1563 l 6.625,-0.6875 -0.78125,0.5312 c 1.600193,-0.1152 5.450469,0.3115 9.96875,0.9063 l -0.75,-1.1563 c -1.706049,-0.2586 -2.803909,-0.4653 -2.15625,-0.5625 0.470245,-0.071 1.635143,-0.2946 2.5625,-0.4687 l 0.4375,-0.8438 c 0,0 -0.151228,-0.032 -0.34375,-0.094 -0.0077,0 -0.02332,0 -0.03125,0 z"
       id="path4348" />
    <path
       style="fill:#261813;fill-opacity:0.75;stroke:none"
       d="m 33.8125,1049.5497 -0.28125,1 c 0.483282,0.065 0.949777,0.1215 1.4375,0.1875 l 4.09375,-0.5625 c -1.854568,-0.2213 -3.592899,-0.42 -5.25,-0.625 z"
       id="path3687-1-3-3" />
    <path
       style="fill:#261813;fill-opacity:0.75;stroke:none"
       d="m 126.46875,1044.1748 c 0,0 -7.49625,0.3785 -13.78125,0.1563 -5.37061,-0.1899 -10.46447,0.6553 -15.624998,2.0312 l -0.03125,0.031 0.4375,0.5 c 3.948448,-0.6911 9.442298,-1.5357 14.031248,-1.5938 9.58094,-0.1213 14.96875,0.4688 14.96875,0.4688 l 0,-1.5938 z"
       id="path4344" />
    <path
       style="fill:#261813;fill-opacity:0.75;stroke:none"
       d="m 93.281252,1047.4561 c -1.058207,0.3362 -0.805405,0.3474 0.125,0.1875 l -0.125,-0.1875 z"
       id="path3713-0-7-5" />
    <path
       style="fill:#261813;fill-opacity:0.75;stroke:none"
       d="m 95.062502,1040.9561 c -2.842862,0.01 -9.308481,0.4156 -13.125,1.2812 -6.35256,1.4408 -16.15625,3.9688 -16.15625,3.9688 l 0.0625,1.0312 c 0,0 11.43745,-3.3423 15.6875,-4.125 4.25004,-0.7828 7.26062,-0.9234 13.34375,-1.7187 0.13115,-0.017 0.136276,-0.015 0.25,-0.031 l 0.125,-0.1562 -0.0625,-0.25 c -0.05516,-2e-4 -0.06672,-2e-4 -0.125,0 z"
       id="path3713-0-7-5-5" />
    <path
       style="fill:#000000;stroke:none"
       d="m 47.142859,1010.1122 22.5,-2.3214 -2.946428,1.9643 12.232139,-0.3572 -0.89285,-1.4286 0.89285,-1.7857 c 0,0 -2.14285,-0.5357 -1.60714,-1.25 0.53572,-0.7143 1.96429,-1.9643 1.96429,-1.9643 L 77.5,999.5765 l 1.78572,-6.6072 5.17857,0 -1.78572,6.6072 1.42858,2.3214 -1.25,2.5 0.71428,1.4286 -0.71428,1.9643 -0.71429,2.3214 21.42857,-2.9464 -5.26785,3.2143 16.16071,-0.7143 c 0,0 1.51786,1.9643 0.625,2.3214 -0.89286,0.3571 -19.55357,0.2679 -19.55357,0.2679 l 0.35714,1.0714 -14.10714,-0.8929 2.32143,3.5715 -1.96429,0.8928 1.78571,1.7857 -2.14285,2.8572 1.60714,1.9643 -1.60714,1.4285 2.14285,2.3215 -8.749997,1.4285 3.571427,-5.1785 -1.42857,-1.7858 1.78572,-1.4285 -1.07143,-1.6072 1.96428,-2.3214 -1.07143,-4.4643 -14.285711,3.0357 2.946429,-2.2321 -22.053572,0.8036 1.607143,-3.3929 z"
       id="path3140"
       sodipodi:nodetypes="ccccccscccccccccccccsccccccccccccccccccccc" />
  </g>
</svg>
