<?xml version="1.0" encoding="UTF-8" standalone="no"?>
<!-- Created with Inkscape (http://www.inkscape.org/) -->

<svg
   xmlns:dc="http://purl.org/dc/elements/1.1/"
   xmlns:cc="http://creativecommons.org/ns#"
   xmlns:rdf="http://www.w3.org/1999/02/22-rdf-syntax-ns#"
   xmlns:svg="http://www.w3.org/2000/svg"
   xmlns="http://www.w3.org/2000/svg"
   xmlns:sodipodi="http://sodipodi.sourceforge.net/DTD/sodipodi-0.dtd"
   xmlns:inkscape="http://www.inkscape.org/namespaces/inkscape"
   width="128"
   height="32"
   id="svg2"
   version="1.1"
   inkscape:version="0.47 r22583"
   sodipodi:docname="entity_smallhardblock.svg">
  <defs
     id="defs4">
    <inkscape:perspective
       sodipodi:type="inkscape:persp3d"
       inkscape:vp_x="0 : 526.18109 : 1"
       inkscape:vp_y="0 : 1000 : 0"
       inkscape:vp_z="744.09448 : 526.18109 : 1"
       inkscape:persp3d-origin="372.04724 : 350.78739 : 1"
       id="perspective10" />
    <inkscape:perspective
       id="perspective3638"
       inkscape:persp3d-origin="0.5 : 0.33333333 : 1"
       inkscape:vp_z="1 : 0.5 : 1"
       inkscape:vp_y="0 : 1000 : 0"
       inkscape:vp_x="0 : 0.5 : 1"
       sodipodi:type="inkscape:persp3d" />
    <inkscape:perspective
       id="perspective3670"
       inkscape:persp3d-origin="0.5 : 0.33333333 : 1"
       inkscape:vp_z="1 : 0.5 : 1"
       inkscape:vp_y="0 : 1000 : 0"
       inkscape:vp_x="0 : 0.5 : 1"
       sodipodi:type="inkscape:persp3d" />
    <inkscape:perspective
       id="perspective3699"
       inkscape:persp3d-origin="0.5 : 0.33333333 : 1"
       inkscape:vp_z="1 : 0.5 : 1"
       inkscape:vp_y="0 : 1000 : 0"
       inkscape:vp_x="0 : 0.5 : 1"
       sodipodi:type="inkscape:persp3d" />
    <inkscape:perspective
       id="perspective3725"
       inkscape:persp3d-origin="0.5 : 0.33333333 : 1"
       inkscape:vp_z="1 : 0.5 : 1"
       inkscape:vp_y="0 : 1000 : 0"
       inkscape:vp_x="0 : 0.5 : 1"
       sodipodi:type="inkscape:persp3d" />
    <inkscape:perspective
       id="perspective3747"
       inkscape:persp3d-origin="0.5 : 0.33333333 : 1"
       inkscape:vp_z="1 : 0.5 : 1"
       inkscape:vp_y="0 : 1000 : 0"
       inkscape:vp_x="0 : 0.5 : 1"
       sodipodi:type="inkscape:persp3d" />
    <inkscape:perspective
       id="perspective3793"
       inkscape:persp3d-origin="0.5 : 0.33333333 : 1"
       inkscape:vp_z="1 : 0.5 : 1"
       inkscape:vp_y="0 : 1000 : 0"
       inkscape:vp_x="0 : 0.5 : 1"
       sodipodi:type="inkscape:persp3d" />
    <inkscape:perspective
       id="perspective3839"
       inkscape:persp3d-origin="0.5 : 0.33333333 : 1"
       inkscape:vp_z="1 : 0.5 : 1"
       inkscape:vp_y="0 : 1000 : 0"
       inkscape:vp_x="0 : 0.5 : 1"
       sodipodi:type="inkscape:persp3d" />
    <inkscape:perspective
       id="perspective3885"
       inkscape:persp3d-origin="0.5 : 0.33333333 : 1"
       inkscape:vp_z="1 : 0.5 : 1"
       inkscape:vp_y="0 : 1000 : 0"
       inkscape:vp_x="0 : 0.5 : 1"
       sodipodi:type="inkscape:persp3d" />
    <inkscape:perspective
       id="perspective3907"
       inkscape:persp3d-origin="0.5 : 0.33333333 : 1"
       inkscape:vp_z="1 : 0.5 : 1"
       inkscape:vp_y="0 : 1000 : 0"
       inkscape:vp_x="0 : 0.5 : 1"
       sodipodi:type="inkscape:persp3d" />
    <inkscape:perspective
       id="perspective3929"
       inkscape:persp3d-origin="0.5 : 0.33333333 : 1"
       inkscape:vp_z="1 : 0.5 : 1"
       inkscape:vp_y="0 : 1000 : 0"
       inkscape:vp_x="0 : 0.5 : 1"
       sodipodi:type="inkscape:persp3d" />
    <inkscape:perspective
       id="perspective5216"
       inkscape:persp3d-origin="0.5 : 0.33333333 : 1"
       inkscape:vp_z="1 : 0.5 : 1"
       inkscape:vp_y="0 : 1000 : 0"
       inkscape:vp_x="0 : 0.5 : 1"
       sodipodi:type="inkscape:persp3d" />
    <inkscape:perspective
       id="perspective5238"
       inkscape:persp3d-origin="0.5 : 0.33333333 : 1"
       inkscape:vp_z="1 : 0.5 : 1"
       inkscape:vp_y="0 : 1000 : 0"
       inkscape:vp_x="0 : 0.5 : 1"
       sodipodi:type="inkscape:persp3d" />
    <inkscape:perspective
       id="perspective5260"
       inkscape:persp3d-origin="0.5 : 0.33333333 : 1"
       inkscape:vp_z="1 : 0.5 : 1"
       inkscape:vp_y="0 : 1000 : 0"
       inkscape:vp_x="0 : 0.5 : 1"
       sodipodi:type="inkscape:persp3d" />
  </defs>
  <sodipodi:namedview
     id="base"
     pagecolor="#ff00ff"
     bordercolor="#666666"
     borderopacity="1.0"
     inkscape:pageopacity="0"
     inkscape:pageshadow="2"
     inkscape:zoom="7.9195959"
     inkscape:cx="53.632693"
     inkscape:cy="16.256152"
     inkscape:document-units="px"
     inkscape:current-layer="layer1"
     showgrid="true"
     inkscape:window-width="1024"
     inkscape:window-height="695"
     inkscape:window-x="1280"
     inkscape:window-y="25"
     inkscape:window-maximized="1"
     inkscape:snap-grids="true">
    <inkscape:grid
       type="xygrid"
       id="grid2816"
       empspacing="5"
       visible="true"
       enabled="true"
       snapvisiblegridlinesonly="true"
       spacingx="0.8px"
       spacingy="0.8px"
       color="#0000ff"
       opacity="0.1254902"
       dotted="false" />
  </sodipodi:namedview>
  <metadata
     id="metadata7">
    <rdf:RDF>
      <cc:Work
         rdf:about="">
        <dc:format>image/svg+xml</dc:format>
        <dc:type
           rdf:resource="http://purl.org/dc/dcmitype/StillImage" />
        <dc:title></dc:title>
      </cc:Work>
    </rdf:RDF>
  </metadata>
  <g
     inkscape:label="レイヤー 1"
     inkscape:groupmode="layer"
     id="layer1"
     transform="translate(0,-1020.3622)">
    <path
       style="fill:#ffffff;stroke:none"
       d="m 1.8983704,1021.9622 c 1.2582062,-1.9561 9.9890556,-0.554 14.9533446,-0.8471 4.982574,-0.2942 12.198774,-0.8471 13.379304,1.6942 1.180532,2.5413 0.787016,8.471 0.787016,13.5537 0,5.0826 0.565739,12.2944 -0.787016,14.4007 -1.18053,1.8381 -13.13165,0.6231 -18.101418,0.8471 -5.1296008,0.2313 -9.0507037,0.8471 -10.2312306,-1.6942 -1.18052703,-2.5413 -0.787018,-8.471 -0.787018,-13.5536 0,-5.0827 -0.5664518,-12.2967 0.787018,-14.4008 z"
       id="path2820-3"
       sodipodi:nodetypes="cssssssss" />
    <path
       style="fill:#ac9393;stroke:none"
       d="m 2.2812439,1022.7622 c 1.2242001,-1.8473 9.7190781,-0.5232 14.5491911,-0.8 4.847908,-0.2778 11.869082,-0.8 13.017705,1.6 1.148622,2.4 0.765745,8 0.765745,12.8 0,4.8 0.550447,11.6108 -0.765745,13.6 -1.148623,1.7359 -12.776736,0.5884 -17.612185,0.8 -4.9909646,0.2184 -8.8060906,0.8 -9.9547111,-1.6 -1.1486205,-2.4 -0.7657469,-8 -0.7657469,-12.8 0,-4.8 -0.5511423,-11.6129 0.7657469,-13.6 z"
       id="path2820"
       sodipodi:nodetypes="cssssssss" />
    <path
       style="fill:#916f6f;stroke:none"
       d="m 29.181098,1022.831 c -0.206053,0.753 -0.360258,1.7365 -0.478588,3.125 -0.378658,4.443 1.113926,16.1302 -0.388853,20 -1.502785,3.8697 -6.07326,1.1693 -11.097352,2.4062 -7.178336,1.7673 -12.6036823,-3.2003 -14.5521876,-0.8125 -0.2514118,0.3081 -0.4615651,0.6234 -0.6431075,0.9375 0.0759,0.2439 0.1579415,0.4863 0.2542514,0.6875 1.1486206,2.4 4.9697291,1.8122 9.9606937,1.5938 4.835449,-0.2116 16.469548,0.9234 17.618171,-0.8125 1.316188,-1.9892 0.762752,-8.7938 0.762752,-13.5938 0,-4.8 0.38586,-10.4125 -0.762752,-12.8125 -0.138264,-0.2889 -0.378609,-0.509 -0.673028,-0.7187 z"
       id="path3660" />
    <path
       style="fill:#c8b7b7;stroke:none"
       d="m 22.675242,1021.8059 c -2.004903,0.01 -4.134522,0.1458 -5.952488,0.25 -4.830113,0.2767 -13.3279839,-1.0661 -14.5521844,0.7813 -1.3168893,1.9871 -0.7627559,8.7937 -0.7627559,13.5937 0,4.8 -0.3858647,10.4125 0.7627559,12.8125 0.1298538,0.2713 0.2976891,0.5188 0.4935478,0.7188 0.1237058,-0.4708 0.2287659,-1.0104 0.2841643,-1.5313 0.765747,-7.2 -1.0722173,-18.2386 0.3739002,-22.375 0.7455588,-2.1326 4.9859016,0.783 9.8709571,-1.1562 5.108701,-2.0281 11.217815,2.024 15.404678,0.3437 0.395541,-0.1588 0.855937,-0.7485 1.181529,-1.5 -0.01255,-0.028 -0.01698,-0.067 -0.02993,-0.094 -0.717889,-1.5 -3.732672,-1.8537 -7.074186,-1.8438 z"
       id="path2820-1" />
    <path
       style="fill:#ac9393;stroke:none"
       d="m 34.286658,1022.7622 c 1.224194,-1.8473 9.719072,-0.5232 14.549195,-0.8 4.847907,-0.2778 11.869073,-0.8 13.017696,1.6 1.148622,2.4 0.765745,8 0.765745,12.8 0,4.8 0.550454,11.6108 -0.765745,13.6 -1.148623,1.7359 -12.776739,0.5884 -17.612186,0.8 -4.99096,0.2184 -8.806083,0.8 -9.954705,-1.6 -1.148623,-2.4 -0.765751,-8 -0.765751,-12.8 0,-4.8 -0.55114,-11.6129 0.765751,-13.6 z"
       id="path2820-5"
       sodipodi:nodetypes="cssssssss" />
    <path
       style="fill:#916f6f;stroke:none"
       d="m 61.186516,1022.831 c -0.206064,0.753 -0.360265,1.7365 -0.478597,3.125 -0.378657,4.4431 1.113924,16.1302 -0.388853,20 -1.502777,3.8697 -6.07326,1.1693 -11.097353,2.4062 -7.178336,1.7673 -12.603675,-3.2003 -14.552188,-0.8125 -0.251411,0.3081 -0.461558,0.6234 -0.6431,0.9375 0.07589,0.2439 0.157942,0.4863 0.254247,0.6875 1.148623,2.4 4.969731,1.8122 9.960691,1.5938 4.835447,-0.2116 16.469549,0.9234 17.618172,-0.8125 1.316192,-1.9892 0.762752,-8.7938 0.762752,-13.5938 0,-4.8 0.38587,-10.4125 -0.762752,-12.8125 -0.138266,-0.2889 -0.37861,-0.509 -0.673019,-0.7187 z"
       id="path3660-4" />
    <path
       style="fill:#c8b7b7;stroke:none"
       d="m 54.680651,1021.8059 c -2.004903,0.01 -4.134522,0.1458 -5.952489,0.25 -4.830113,0.2767 -13.327983,-1.0661 -14.552177,0.7813 -1.316892,1.9871 -0.762763,8.7937 -0.762763,13.5937 0,4.8 -0.38586,10.4125 0.762763,12.8125 0.129852,0.2713 0.297681,0.5188 0.49354,0.7188 0.123705,-0.4708 0.228765,-1.0104 0.284166,-1.5313 0.765745,-7.2 -1.072213,-18.2386 0.373899,-22.375 0.745567,-2.1326 4.985901,0.783 9.870957,-1.1562 5.108702,-2.0281 11.217826,2.024 15.404685,0.3437 0.395535,-0.1588 0.855931,-0.7485 1.181523,-1.5 -0.01255,-0.028 -0.01698,-0.067 -0.02993,-0.094 -0.717884,-1.5 -3.732676,-1.8537 -7.07419,-1.8438 z"
       id="path2820-1-2" />
    <path
       style="fill:#ac9393;stroke:none"
       d="m 66.166539,1022.7622 c 1.224204,-1.8473 9.719082,-0.5232 14.549195,-0.8 4.847906,-0.2778 11.869082,-0.8 13.017696,1.6 1.148621,2.4 0.765754,8 0.765754,12.8 0,4.8 0.550444,11.6108 -0.765754,13.6 -1.148614,1.7359 -12.776739,0.5884 -17.612176,0.8 -4.990972,0.2184 -8.806093,0.8 -9.954715,-1.6 -1.148623,-2.4 -0.765745,-8 -0.765745,-12.8 0,-4.8 -0.551146,-11.6129 0.765745,-13.6 z"
       id="path2820-5-2"
       sodipodi:nodetypes="cssssssss" />
    <path
       style="fill:#916f6f;stroke:none"
       d="m 93.066396,1022.831 c -0.206054,0.753 -0.360262,1.7365 -0.478593,3.125 -0.378653,4.4431 1.11392,16.1302 -0.388857,20 -1.502777,3.8697 -6.07326,1.1693 -11.097352,2.4062 -7.178325,1.7673 -12.603674,-3.2003 -14.552178,-0.8125 -0.251413,0.3081 -0.461566,0.6234 -0.64311,0.9375 0.07589,0.2439 0.15794,0.4863 0.254247,0.6875 1.148623,2.4 4.969729,1.8122 9.960701,1.5938 4.835437,-0.2116 16.469538,0.9234 17.618161,-0.8125 1.316198,-1.9892 0.762756,-8.7938 0.762756,-13.5938 0,-4.8 0.385866,-10.4125 -0.762756,-12.8125 -0.138266,-0.2889 -0.37861,-0.509 -0.673019,-0.7187 z"
       id="path3660-4-1" />
    <path
       style="fill:#c8b7b7;stroke:none"
       d="m 86.560541,1021.8059 c -2.004903,0.01 -4.134522,0.1458 -5.952488,0.25 -4.830123,0.2767 -13.327993,-1.0661 -14.552187,0.7813 -1.316891,1.9871 -0.762756,8.7937 -0.762756,13.5937 0,4.8 -0.385867,10.4125 0.762756,12.8125 0.12985,0.2713 0.29769,0.5188 0.49355,0.7188 0.123706,-0.4708 0.228767,-1.0104 0.284156,-1.5313 0.765755,-7.2 -1.072214,-18.2386 0.373909,-22.375 0.745557,-2.1326 4.985898,0.783 9.870957,-1.1562 5.108701,-2.0281 11.217815,2.024 15.404674,0.3437 0.395535,-0.1588 0.855941,-0.7485 1.181523,-1.5 -0.01255,-0.028 -0.01698,-0.067 -0.02993,-0.094 -0.717891,-1.5 -3.732682,-1.8537 -7.074186,-1.8438 z"
       id="path2820-1-2-9" />
    <path
       style="fill:#ffffff;stroke:none"
       d="m 97.663369,1021.9622 c 1.258201,-1.9561 9.989061,-0.554 14.953341,-0.8471 4.98262,-0.2942 12.19877,-0.8471 13.37928,1.6942 1.18052,2.5413 0.78702,8.471 0.78702,13.5537 0,5.0826 0.56573,12.2944 -0.78701,14.4007 -1.18052,1.8381 -13.13166,0.6231 -18.10135,0.8471 -5.12963,0.2313 -9.050753,0.8471 -10.231281,-1.6942 -1.180527,-2.5413 -0.787018,-8.471 -0.787018,-13.5536 0,-5.0827 -0.566448,-12.2967 0.787018,-14.4008 z"
       id="path2820-3-8-1-1"
       sodipodi:nodetypes="cssssssss" />
    <path
       style="fill:#ac9393;stroke:none"
       d="m 98.046237,1022.7622 c 1.224204,-1.8473 9.719073,-0.5232 14.549233,-0.8 4.84788,-0.2778 11.86907,-0.8 13.01768,1.6 1.14861,2.4 0.76577,8 0.76577,12.8 0,4.8 0.55043,11.6108 -0.76577,13.6 -1.14861,1.7359 -12.77672,0.5884 -17.61223,0.8 -4.99095,0.2184 -8.806061,0.8 -9.954683,-1.6 -1.148623,-2.4 -0.765745,-8 -0.765745,-12.8 0,-4.8 -0.551146,-11.6129 0.765745,-13.6 z"
       id="path2820-5-2-4"
       sodipodi:nodetypes="cssssssss" />
    <path
       style="fill:#916f6f;stroke:none"
       d="m 124.9461,1022.831 c -0.20604,0.753 -0.3603,1.7365 -0.47855,3.125 -0.37868,4.4431 1.1139,16.1302 -0.38886,20 -1.50277,3.8697 -6.07334,1.1693 -11.09736,2.4062 -7.17834,1.7673 -12.60371,-3.2003 -14.552216,-0.8125 -0.251414,0.3081 -0.461566,0.6234 -0.64311,0.9375 0.07589,0.2439 0.15794,0.4863 0.254257,0.6875 1.148613,2.4 4.969709,1.8122 9.960659,1.5938 4.83551,-0.2116 16.46954,0.9234 17.61816,-0.8125 1.31619,-1.9892 0.76276,-8.7938 0.76276,-13.5938 0,-4.8 0.38595,-10.4125 -0.76276,-12.8125 -0.13819,-0.2889 -0.3786,-0.509 -0.67298,-0.7187 z"
       id="path3660-4-1-1" />
    <path
       style="fill:#c8b7b7;stroke:none"
       d="m 118.44027,1021.8059 c -2.0049,0.01 -4.13459,0.1458 -5.95256,0.25 -4.83006,0.2767 -13.327942,-1.0661 -14.552146,0.7813 -1.316891,1.9871 -0.762753,8.7937 -0.762753,13.5937 0,4.8 -0.38587,10.4125 0.762753,12.8125 0.12985,0.2713 0.29769,0.5188 0.49355,0.7188 0.123706,-0.4708 0.228767,-1.0104 0.284166,-1.5313 0.765745,-7.2 -1.072224,-18.2386 0.373899,-22.375 0.745557,-2.1326 4.985901,0.783 9.870941,-1.1562 5.1087,-2.0281 11.21782,2.024 15.40468,0.3437 0.39552,-0.1588 0.85593,-0.7485 1.18156,-1.5 -0.0129,-0.028 -0.0167,-0.067 -0.0301,-0.094 -0.71787,-1.5 -3.73271,-1.8537 -7.07416,-1.8438 z"
       id="path2820-1-2-9-9" />
    <path
       style="fill:#261813;fill-opacity:0.75;stroke:none"
       d="m 65.400794,1031.5622 c 0,0 4.996151,0.8071 9.059055,0.6214 4.042224,-0.1848 9.182138,-4.2178 11.479373,-3.8178 0.987724,0.172 -6.748743,3.5142 -8.286478,3.9964 -1.537735,0.4823 14.41326,3.443 11.869082,4 -2.544172,0.557 -13.28335,-3.5963 -15.31494,-3.2 -2.031599,0.3962 -8.806092,0 -8.806092,0 l 0,-1.6 z"
       id="path3687-1-3-3"
       sodipodi:nodetypes="cssssscc" />
    <path
       style="fill:#261813;fill-opacity:0.75;stroke:none"
       d="m 94.526856,1045.7758 c 0,0 -2.567866,-0.5834 -7.153233,-0.4621 -4.644969,0.1229 -11.359148,3.8043 -8.489883,1.9799 3.020255,-1.9204 5.938381,-3.194 9.053932,-2.9639 3.007954,0.2222 6.589184,-0.1539 6.589184,-0.1539 l 0,1.6 z"
       id="path3713-0-7-5"
       sodipodi:nodetypes="cssscc" />
    <path
       style="fill:#261813;fill-opacity:0.75;stroke:none"
       d="m 73.01893,1043.1234 c -2.034045,0.7827 -7.506711,4.1283 -7.506711,4.1283 0,0 -0.02903,-1.0558 -0.02903,-1.0558 0,0 4.688979,-2.5052 7.729262,-3.946 2.922488,-1.385 9.115933,-1.6635 6.204599,-0.8682 -2.911334,0.7953 -4.36407,0.9589 -6.398099,1.7417 z"
       id="path3713-0-7-5-5"
       sodipodi:nodetypes="cccszz" />
  </g>
</svg>
