<?xml version="1.0" encoding="UTF-8" standalone="no"?>
<!-- Created with Inkscape (http://www.inkscape.org/) -->

<svg
   xmlns:dc="http://purl.org/dc/elements/1.1/"
   xmlns:cc="http://creativecommons.org/ns#"
   xmlns:rdf="http://www.w3.org/1999/02/22-rdf-syntax-ns#"
   xmlns:svg="http://www.w3.org/2000/svg"
   xmlns="http://www.w3.org/2000/svg"
   xmlns:sodipodi="http://sodipodi.sourceforge.net/DTD/sodipodi-0.dtd"
   xmlns:inkscape="http://www.inkscape.org/namespaces/inkscape"
   width="64"
   height="16"
   id="svg2"
   version="1.1"
   inkscape:version="0.47 r22583"
   sodipodi:docname="entity_smallsoftblock_piece.svg"
   inkscape:export-filename="/home/cattaka/myfile/mydoc/eclipseAndroid/HungryCatBallMisc/resources/block/entity_smallsoftblock_piece.png"
   inkscape:export-xdpi="90"
   inkscape:export-ydpi="90">
  <defs
     id="defs4">
    <inkscape:perspective
       sodipodi:type="inkscape:persp3d"
       inkscape:vp_x="0 : 526.18109 : 1"
       inkscape:vp_y="0 : 1000 : 0"
       inkscape:vp_z="744.09448 : 526.18109 : 1"
       inkscape:persp3d-origin="372.04724 : 350.78739 : 1"
       id="perspective10" />
    <inkscape:perspective
       id="perspective3638"
       inkscape:persp3d-origin="0.5 : 0.33333333 : 1"
       inkscape:vp_z="1 : 0.5 : 1"
       inkscape:vp_y="0 : 1000 : 0"
       inkscape:vp_x="0 : 0.5 : 1"
       sodipodi:type="inkscape:persp3d" />
    <inkscape:perspective
       id="perspective3670"
       inkscape:persp3d-origin="0.5 : 0.33333333 : 1"
       inkscape:vp_z="1 : 0.5 : 1"
       inkscape:vp_y="0 : 1000 : 0"
       inkscape:vp_x="0 : 0.5 : 1"
       sodipodi:type="inkscape:persp3d" />
    <inkscape:perspective
       id="perspective3699"
       inkscape:persp3d-origin="0.5 : 0.33333333 : 1"
       inkscape:vp_z="1 : 0.5 : 1"
       inkscape:vp_y="0 : 1000 : 0"
       inkscape:vp_x="0 : 0.5 : 1"
       sodipodi:type="inkscape:persp3d" />
    <inkscape:perspective
       id="perspective3725"
       inkscape:persp3d-origin="0.5 : 0.33333333 : 1"
       inkscape:vp_z="1 : 0.5 : 1"
       inkscape:vp_y="0 : 1000 : 0"
       inkscape:vp_x="0 : 0.5 : 1"
       sodipodi:type="inkscape:persp3d" />
    <inkscape:perspective
       id="perspective3747"
       inkscape:persp3d-origin="0.5 : 0.33333333 : 1"
       inkscape:vp_z="1 : 0.5 : 1"
       inkscape:vp_y="0 : 1000 : 0"
       inkscape:vp_x="0 : 0.5 : 1"
       sodipodi:type="inkscape:persp3d" />
    <inkscape:perspective
       id="perspective3793"
       inkscape:persp3d-origin="0.5 : 0.33333333 : 1"
       inkscape:vp_z="1 : 0.5 : 1"
       inkscape:vp_y="0 : 1000 : 0"
       inkscape:vp_x="0 : 0.5 : 1"
       sodipodi:type="inkscape:persp3d" />
    <inkscape:perspective
       id="perspective3839"
       inkscape:persp3d-origin="0.5 : 0.33333333 : 1"
       inkscape:vp_z="1 : 0.5 : 1"
       inkscape:vp_y="0 : 1000 : 0"
       inkscape:vp_x="0 : 0.5 : 1"
       sodipodi:type="inkscape:persp3d" />
    <inkscape:perspective
       id="perspective3885"
       inkscape:persp3d-origin="0.5 : 0.33333333 : 1"
       inkscape:vp_z="1 : 0.5 : 1"
       inkscape:vp_y="0 : 1000 : 0"
       inkscape:vp_x="0 : 0.5 : 1"
       sodipodi:type="inkscape:persp3d" />
    <inkscape:perspective
       id="perspective3907"
       inkscape:persp3d-origin="0.5 : 0.33333333 : 1"
       inkscape:vp_z="1 : 0.5 : 1"
       inkscape:vp_y="0 : 1000 : 0"
       inkscape:vp_x="0 : 0.5 : 1"
       sodipodi:type="inkscape:persp3d" />
    <inkscape:perspective
       id="perspective3929"
       inkscape:persp3d-origin="0.5 : 0.33333333 : 1"
       inkscape:vp_z="1 : 0.5 : 1"
       inkscape:vp_y="0 : 1000 : 0"
       inkscape:vp_x="0 : 0.5 : 1"
       sodipodi:type="inkscape:persp3d" />
    <inkscape:perspective
       id="perspective4131"
       inkscape:persp3d-origin="0.5 : 0.33333333 : 1"
       inkscape:vp_z="1 : 0.5 : 1"
       inkscape:vp_y="0 : 1000 : 0"
       inkscape:vp_x="0 : 0.5 : 1"
       sodipodi:type="inkscape:persp3d" />
    <inkscape:perspective
       id="perspective4131-2"
       inkscape:persp3d-origin="0.5 : 0.33333333 : 1"
       inkscape:vp_z="1 : 0.5 : 1"
       inkscape:vp_y="0 : 1000 : 0"
       inkscape:vp_x="0 : 0.5 : 1"
       sodipodi:type="inkscape:persp3d" />
    <inkscape:perspective
       id="perspective4131-4"
       inkscape:persp3d-origin="0.5 : 0.33333333 : 1"
       inkscape:vp_z="1 : 0.5 : 1"
       inkscape:vp_y="0 : 1000 : 0"
       inkscape:vp_x="0 : 0.5 : 1"
       sodipodi:type="inkscape:persp3d" />
    <inkscape:perspective
       id="perspective4131-1"
       inkscape:persp3d-origin="0.5 : 0.33333333 : 1"
       inkscape:vp_z="1 : 0.5 : 1"
       inkscape:vp_y="0 : 1000 : 0"
       inkscape:vp_x="0 : 0.5 : 1"
       sodipodi:type="inkscape:persp3d" />
    <inkscape:perspective
       id="perspective4131-7"
       inkscape:persp3d-origin="0.5 : 0.33333333 : 1"
       inkscape:vp_z="1 : 0.5 : 1"
       inkscape:vp_y="0 : 1000 : 0"
       inkscape:vp_x="0 : 0.5 : 1"
       sodipodi:type="inkscape:persp3d" />
    <inkscape:perspective
       id="perspective4194"
       inkscape:persp3d-origin="0.5 : 0.33333333 : 1"
       inkscape:vp_z="1 : 0.5 : 1"
       inkscape:vp_y="0 : 1000 : 0"
       inkscape:vp_x="0 : 0.5 : 1"
       sodipodi:type="inkscape:persp3d" />
    <inkscape:perspective
       id="perspective4194-0"
       inkscape:persp3d-origin="0.5 : 0.33333333 : 1"
       inkscape:vp_z="1 : 0.5 : 1"
       inkscape:vp_y="0 : 1000 : 0"
       inkscape:vp_x="0 : 0.5 : 1"
       sodipodi:type="inkscape:persp3d" />
    <inkscape:perspective
       id="perspective4362"
       inkscape:persp3d-origin="0.5 : 0.33333333 : 1"
       inkscape:vp_z="1 : 0.5 : 1"
       inkscape:vp_y="0 : 1000 : 0"
       inkscape:vp_x="0 : 0.5 : 1"
       sodipodi:type="inkscape:persp3d" />
  </defs>
  <sodipodi:namedview
     id="base"
     pagecolor="#ff00ff"
     bordercolor="#666666"
     borderopacity="1.0"
     inkscape:pageopacity="0"
     inkscape:pageshadow="2"
     inkscape:zoom="7.9195959"
     inkscape:cx="22.040721"
     inkscape:cy="29.283191"
     inkscape:document-units="px"
     inkscape:current-layer="layer1"
     showgrid="true"
     inkscape:window-width="1024"
     inkscape:window-height="695"
     inkscape:window-x="1280"
     inkscape:window-y="25"
     inkscape:window-maximized="1"
     inkscape:snap-grids="true">
    <inkscape:grid
       type="xygrid"
       id="grid2816"
       empspacing="5"
       visible="true"
       enabled="true"
       snapvisiblegridlinesonly="true"
       spacingx="0.8px"
       spacingy="0.8px"
       color="#0000ff"
       opacity="0.1254902"
       dotted="false" />
  </sodipodi:namedview>
  <metadata
     id="metadata7">
    <rdf:RDF>
      <cc:Work
         rdf:about="">
        <dc:format>image/svg+xml</dc:format>
        <dc:type
           rdf:resource="http://purl.org/dc/dcmitype/StillImage" />
        <dc:title></dc:title>
      </cc:Work>
    </rdf:RDF>
  </metadata>
  <g
     inkscape:label="レイヤー 1"
     inkscape:groupmode="layer"
     id="layer1"
     transform="translate(0,-1036.3622)">
    <path
       style="fill:#d38d5f;stroke:none"
       d="m 23.08777,1037.4057 c -2.086405,0.01 -4.295634,0.1458 -6.1875,0.25 -5.026463,0.2767 -13.8822858,-1.0349 -15.1562498,0.8125 -1.31795571,1.911 -0.81993546,8.2451 -0.78124997,13 l 16.34374977,-0.3125 -2.125,-2.1563 10.09375,1.75 5.96875,-0.25 c 0.05549,-4.4029 0.256183,-9.1043 -0.8125,-11.25 -0.747071,-1.5 -3.866408,-1.8536 -7.34375,-1.8437 z"
       id="path4465" />
    <path
       style="fill:#c87137;stroke:none"
       d="m 29.74402,1038.5307 c -0.214434,0.753 -0.376858,1.7365 -0.5,3.125 -0.175064,1.9739 0.0067,5.4246 0.15625,8.9375 l 1.84375,-0.094 c 0.05601,-4.4051 0.256199,-9.1042 -0.8125,-11.25 -0.143886,-0.2889 -0.381121,-0.509 -0.6875,-0.7187 z"
       id="path4461" />
    <path
       style="fill:#deaa87;stroke:none"
       d="m 22.96277,1037.4994 c -2.086403,0.01 -4.295634,0.1458 -6.1875,0.25 -5.026463,0.2767 -13.8822858,-1.0661 -15.1562498,0.7813 -1.3124142,1.9029 -0.82367064,8.1897 -0.78124997,12.9375 l 1.53124997,-0.031 c -0.1795933,-4.0364 -0.2624053,-7.6778 0.46875,-9.6875 0.775867,-2.1326 5.166361,0.783 10.2499998,-1.1562 5.316371,-2.0281 11.674191,2.024 16.03125,0.3437 0.411615,-0.1588 0.911178,-0.7485 1.25,-1.5 -0.01305,-0.028 -0.0178,-0.067 -0.03125,-0.094 -0.74707,-1.5 -3.897656,-1.8537 -7.375,-1.8438 z"
       id="path4457" />
    <path
       style="fill:#a05a2c;fill-opacity:0.49803922;stroke:none"
       d="m 0.94714523,1042.4619 c 0,0 7.57031197,-0.8 12.35156177,0 4.111497,0.688 -12.35156177,1.6 -12.35156177,1.6 l 0,-1.6 z"
       id="path3687-1-3" />
    <path
       style="fill:#a05a2c;fill-opacity:0.49803922;stroke:none"
       d="m 31.21277,1048.8744 c 0,0 -6.476759,0.5157 -11.1875,0.9688 l 3.625,0.625 7.5625,0 0,-1.5938 z"
       id="path4445" />
    <path
       style="fill:#a05a2c;fill-opacity:0.49803922;stroke:none"
       d="m 16.36902,1050.2182 c -1.188751,0.15 -1.511559,0.25 -0.28125,0.25 l 0.53125,0 -0.25,-0.25 z"
       id="path3715-2-2" />
    <path
       style="fill:#261813;fill-opacity:0.75;stroke:none"
       d="m 21.83777,1044.0307 c -2.572862,0.1141 -7.525124,3.6705 -11.46875,3.8437 -4.2280638,0.1857 -9.40624977,-0.625 -9.40624977,-0.625 l -0.03125,1.625 c 0,0 7.07331997,0.3962 9.18749977,0 0.883554,-0.1656 3.360047,0.471 6.125,1.2188 l -1.0625,-1.0938 2.40625,0.4063 c -2.543834,-0.6205 -4.475092,-1.1629 -3.875,-1.3438 1.600245,-0.4822 9.621624,-3.828 8.59375,-4 -0.149414,-0.025 -0.297226,-0.039 -0.46875,-0.031 z"
       id="path3687-1-3-3" />
    <path
       style="fill:#000000;fill-opacity:1;stroke:none"
       d="m -0.9968374,1023.8571 0.126269,-2.6516 c 0,0 19.0666294,-0.3789 19.0666294,-0.3789 0,0 -2.146574,-2.1465 -2.146574,-2.1465 0,0 10.101525,1.7677 10.101525,1.7677 l 9.343912,-0.3788 0.505076,4.2932 -10.227795,-1.2627 -8.460027,0 -6.565992,-0.5051 5.050763,1.7678 -16.7937864,-0.5051 z"
       id="path4031"
       sodipodi:nodetypes="cccccccccccc" />
    <path
       style="fill:#d38d5f;stroke:none"
       d="m 41.9,1037.3307 5.0625,1.7812 -14,-0.4062 c -0.06354,4.2055 -0.203018,8.5547 0.8125,10.5937 1.195312,2.4 5.149898,1.8122 10.34375,1.5938 5.032007,-0.2116 17.148437,0.9234 18.34375,-0.8125 1.179134,-1.7125 0.939052,-6.9375 0.84375,-11.4375 l -6.375,-0.8125 -8.46875,0 -6.5625,-0.5 z"
       id="path2820-5-2-9" />
    <path
       style="fill:#c87137;stroke:none"
       d="m 61.55625,1038.4244 c 0.05733,3.1729 -0.04697,6.0713 -0.6875,7.6563 -1.563867,3.8697 -6.334178,1.1693 -11.5625,2.4062 -7.470135,1.7673 -13.097286,-3.2003 -15.125,-0.8125 -0.261633,0.3081 -0.498576,0.6234 -0.6875,0.9375 0.07899,0.2439 0.181023,0.4863 0.28125,0.6875 1.195313,2.4 5.149898,1.8122 10.34375,1.5938 5.032007,-0.2116 17.148437,0.9234 18.34375,-0.8125 1.17916,-1.7125 0.939688,-6.9388 0.84375,-11.4375 l -1.75,-0.2188 z"
       id="path3660-4-1-0" />
    <path
       style="fill:#deaa87;stroke:none"
       d="m 32.8375,1038.7057 c -0.06378,4.2276 -0.208065,8.6071 0.8125,10.6562 0.13513,0.2713 0.32743,0.5188 0.53125,0.7188 0.128736,-0.4708 0.223601,-1.0104 0.28125,-1.5313 0.319335,-2.8853 0.219108,-6.3856 0.0625,-9.8125 l -1.6875,-0.031 z"
       id="path2820-1-2-9-0" />
    <path
       style="fill:#a05a2c;fill-opacity:0.49803922;stroke:none"
       d="m 45.3375,1038.0807 c -0.309582,0 -0.809681,0.02 -1.1875,0.031 l 0.96875,0.3438 0.03125,0 c 0.964064,-0.225 1.221606,-0.375 0.1875,-0.375 z"
       id="path4420" />
    <path
       style="fill:#a05a2c;fill-opacity:0.49803922;stroke:none"
       d="m 34.7125,1038.7369 c -0.480103,0.042 -1.71875,0.1563 -1.71875,0.1563 l 0,1.5937 c 0,0 5.612934,-0.8174 9.46875,-1.5 l -7.75,-0.25 z"
       id="path3689-1-7-6" />
    <path
       style="fill:#a05a2c;fill-opacity:0.49803922;stroke:none"
       d="m 63.259375,1044.4869 c 0,0 -25.35856,0.6588 -19.125,0 7.570312,-0.8 19.125,-1.6 19.125,-1.6 l 0,1.6 z"
       id="path3713-0-7-0" />
    <path
       style="fill:#261813;fill-opacity:0.75;stroke:none"
       d="m 63.288177,1045.9005 c 0,0 -2.672256,-0.5834 -7.444013,-0.4621 -4.833789,0.1229 -11.820908,3.8043 -8.835003,1.9799 3.143025,-1.9204 6.179781,-3.194 9.421981,-2.9639 3.130225,0.2222 6.857035,-0.1539 6.857035,-0.1539 l 0,1.6 z"
       id="path3713-0-7-5-57" />
    <path
       style="fill:#261813;fill-opacity:0.75;stroke:none"
       d="m 40.905941,1043.2481 c -2.116725,0.7827 -7.811861,4.1283 -7.811861,4.1283 0,0 -0.03023,-1.0558 -0.03023,-1.0558 0,0 4.879589,-2.5052 8.043462,-3.946 3.041288,-1.385 9.486503,-1.6635 6.456819,-0.8682 -3.029684,0.7953 -4.54147,0.9589 -6.658189,1.7417 z"
       id="path3713-0-7-5-5-7" />
  </g>
</svg>
