<?xml version="1.0" encoding="UTF-8" standalone="no"?>
<!-- Created with Inkscape (http://www.inkscape.org/) -->

<svg
   xmlns:dc="http://purl.org/dc/elements/1.1/"
   xmlns:cc="http://creativecommons.org/ns#"
   xmlns:rdf="http://www.w3.org/1999/02/22-rdf-syntax-ns#"
   xmlns:svg="http://www.w3.org/2000/svg"
   xmlns="http://www.w3.org/2000/svg"
   xmlns:sodipodi="http://sodipodi.sourceforge.net/DTD/sodipodi-0.dtd"
   xmlns:inkscape="http://www.inkscape.org/namespaces/inkscape"
   width="256"
   height="32"
   id="svg2"
   version="1.1"
   inkscape:version="0.47 r22583"
   sodipodi:docname="doc01.svg">
  <defs
     id="defs4">
    <inkscape:perspective
       sodipodi:type="inkscape:persp3d"
       inkscape:vp_x="0 : 526.18109 : 1"
       inkscape:vp_y="0 : 1000 : 0"
       inkscape:vp_z="744.09448 : 526.18109 : 1"
       inkscape:persp3d-origin="372.04724 : 350.78739 : 1"
       id="perspective10" />
    <inkscape:perspective
       id="perspective3638"
       inkscape:persp3d-origin="0.5 : 0.33333333 : 1"
       inkscape:vp_z="1 : 0.5 : 1"
       inkscape:vp_y="0 : 1000 : 0"
       inkscape:vp_x="0 : 0.5 : 1"
       sodipodi:type="inkscape:persp3d" />
    <inkscape:perspective
       id="perspective3670"
       inkscape:persp3d-origin="0.5 : 0.33333333 : 1"
       inkscape:vp_z="1 : 0.5 : 1"
       inkscape:vp_y="0 : 1000 : 0"
       inkscape:vp_x="0 : 0.5 : 1"
       sodipodi:type="inkscape:persp3d" />
    <inkscape:perspective
       id="perspective3699"
       inkscape:persp3d-origin="0.5 : 0.33333333 : 1"
       inkscape:vp_z="1 : 0.5 : 1"
       inkscape:vp_y="0 : 1000 : 0"
       inkscape:vp_x="0 : 0.5 : 1"
       sodipodi:type="inkscape:persp3d" />
    <inkscape:perspective
       id="perspective3725"
       inkscape:persp3d-origin="0.5 : 0.33333333 : 1"
       inkscape:vp_z="1 : 0.5 : 1"
       inkscape:vp_y="0 : 1000 : 0"
       inkscape:vp_x="0 : 0.5 : 1"
       sodipodi:type="inkscape:persp3d" />
    <inkscape:perspective
       id="perspective3747"
       inkscape:persp3d-origin="0.5 : 0.33333333 : 1"
       inkscape:vp_z="1 : 0.5 : 1"
       inkscape:vp_y="0 : 1000 : 0"
       inkscape:vp_x="0 : 0.5 : 1"
       sodipodi:type="inkscape:persp3d" />
    <inkscape:perspective
       id="perspective3793"
       inkscape:persp3d-origin="0.5 : 0.33333333 : 1"
       inkscape:vp_z="1 : 0.5 : 1"
       inkscape:vp_y="0 : 1000 : 0"
       inkscape:vp_x="0 : 0.5 : 1"
       sodipodi:type="inkscape:persp3d" />
    <inkscape:perspective
       id="perspective3839"
       inkscape:persp3d-origin="0.5 : 0.33333333 : 1"
       inkscape:vp_z="1 : 0.5 : 1"
       inkscape:vp_y="0 : 1000 : 0"
       inkscape:vp_x="0 : 0.5 : 1"
       sodipodi:type="inkscape:persp3d" />
    <inkscape:perspective
       id="perspective3885"
       inkscape:persp3d-origin="0.5 : 0.33333333 : 1"
       inkscape:vp_z="1 : 0.5 : 1"
       inkscape:vp_y="0 : 1000 : 0"
       inkscape:vp_x="0 : 0.5 : 1"
       sodipodi:type="inkscape:persp3d" />
    <inkscape:perspective
       id="perspective3907"
       inkscape:persp3d-origin="0.5 : 0.33333333 : 1"
       inkscape:vp_z="1 : 0.5 : 1"
       inkscape:vp_y="0 : 1000 : 0"
       inkscape:vp_x="0 : 0.5 : 1"
       sodipodi:type="inkscape:persp3d" />
    <inkscape:perspective
       id="perspective3929"
       inkscape:persp3d-origin="0.5 : 0.33333333 : 1"
       inkscape:vp_z="1 : 0.5 : 1"
       inkscape:vp_y="0 : 1000 : 0"
       inkscape:vp_x="0 : 0.5 : 1"
       sodipodi:type="inkscape:persp3d" />
  </defs>
  <sodipodi:namedview
     id="base"
     pagecolor="#ff00ff"
     bordercolor="#666666"
     borderopacity="1.0"
     inkscape:pageopacity="0"
     inkscape:pageshadow="2"
     inkscape:zoom="2.8"
     inkscape:cx="128.92429"
     inkscape:cy="30.196339"
     inkscape:document-units="px"
     inkscape:current-layer="layer1"
     showgrid="true"
     inkscape:window-width="1024"
     inkscape:window-height="695"
     inkscape:window-x="0"
     inkscape:window-y="25"
     inkscape:window-maximized="1"
     inkscape:snap-grids="false">
    <inkscape:grid
       type="xygrid"
       id="grid2816"
       empspacing="5"
       visible="true"
       enabled="true"
       snapvisiblegridlinesonly="true"
       spacingx="0.8px"
       spacingy="0.8px"
       color="#0000ff"
       opacity="0.1254902"
       dotted="false" />
  </sodipodi:namedview>
  <metadata
     id="metadata7">
    <rdf:RDF>
      <cc:Work
         rdf:about="">
        <dc:format>image/svg+xml</dc:format>
        <dc:type
           rdf:resource="http://purl.org/dc/dcmitype/StillImage" />
        <dc:title></dc:title>
      </cc:Work>
    </rdf:RDF>
  </metadata>
  <g
     inkscape:label="レイヤー 1"
     inkscape:groupmode="layer"
     id="layer1"
     transform="translate(0,-1020.3622)">
    <path
       style="fill:#ffffff;stroke:none"
       d="m 2.4,1021.9622 c 2.6289739,-1.9561 20.871757,-0.554 31.244453,-0.8471 10.410902,-0.2942 25.488894,-0.8471 27.955562,1.6942 2.466667,2.5413 1.644444,8.471 1.644444,13.5537 0,5.0826 1.182088,12.2944 -1.644444,14.4007 -2.466668,1.8381 -27.438092,0.6231 -37.822231,0.8471 -10.718119,0.2313 -18.9111168,0.8471 -21.377784,-1.6942 -2.46666724,-2.5413 -1.64444482,-8.471 -1.64444482,-13.5536 0,-5.0827 -1.18357992,-12.2967 1.64444482,-14.4008 z"
       id="path2820-3"
       sodipodi:nodetypes="cssssssss" />
    <path
       style="fill:#d38d5f;stroke:none"
       d="m 3.2,1022.7622 c 2.55792,-1.8473 20.30765,-0.5232 30.4,-0.8 10.129524,-0.2778 24.8,-0.8 27.2,1.6 2.4,2.4 1.6,8 1.6,12.8 0,4.8 1.150139,11.6108 -1.6,13.6 -2.4,1.7359 -26.696515,0.5884 -36.8,0.8 -10.428437,0.2184 -18.4,0.8 -20.8,-1.6 -2.4,-2.4 -1.6,-8 -1.6,-12.8 0,-4.8 -1.15159103,-11.6129 1.6,-13.6 z"
       id="path2820"
       sodipodi:nodetypes="cssssssss" />
    <path
       style="fill:#c87137;stroke:none;stroke-width:1px;stroke-linecap:butt;stroke-linejoin:miter;stroke-opacity:1"
       d="M 59.40625 2.46875 C 58.975704 3.2217701 58.653496 4.2052828 58.40625 5.59375 C 57.615063 10.036845 60.733754 21.72398 57.59375 25.59375 C 54.453746 29.46352 44.903899 26.763056 34.40625 28 C 19.407389 29.767324 8.0713283 24.799708 4 27.1875 C 3.4746844 27.495592 3.0355765 27.810926 2.65625 28.125 C 2.8148485 28.368873 2.986264 28.611264 3.1875 28.8125 C 5.5875 31.2125 13.571563 30.62465 24 30.40625 C 34.103485 30.19465 58.4125 31.32965 60.8125 29.59375 C 63.562639 27.60455 62.40625 20.8 62.40625 16 C 62.40625 11.2 63.2125 5.5875 60.8125 3.1875 C 60.523605 2.898605 60.021413 2.6784848 59.40625 2.46875 z "
       transform="translate(0,1020.3622)"
       id="path3660" />
    <path
       style="fill:#deaa87;stroke:none"
       d="m 45.8125,1021.8059 c -4.18917,0.01 -8.63893,0.1458 -12.4375,0.25 -10.09235,0.2767 -27.848329,-1.0661 -30.40625,0.7813 -2.751591,1.9871 -1.59375,8.7937 -1.59375,13.5937 0,4.8 -0.80625,10.4125 1.59375,12.8125 0.271324,0.2713 0.62201,0.5188 1.03125,0.7188 0.258478,-0.4708 0.477997,-1.0104 0.59375,-1.5313 1.6,-7.2 -2.240358,-18.2386 0.78125,-22.375 1.557819,-2.1326 10.417856,0.783 20.625,-1.1562 10.67444,-2.0281 23.43921,2.024 32.1875,0.3437 0.82646,-0.1588 1.78845,-0.7485 2.46875,-1.5 -0.0262,-0.028 -0.0355,-0.067 -0.0625,-0.094 -1.5,-1.5 -7.79929,-1.8537 -14.78125,-1.8438 z"
       id="path2820-1" />
    <path
       style="fill:#a05a2c;stroke:none;stroke-width:1px;stroke-linecap:butt;stroke-linejoin:miter;stroke-opacity:1;fill-opacity:0.49803922000000000"
       d="m 1.6,6.4 c 0,0 15.2,-0.8 24.8,0 C 34.655238,7.0879365 1.6,8 1.6,8 l 0,-1.6 z"
       id="path3687"
       transform="translate(0,1020.3622)"
       sodipodi:nodetypes="cscc" />
    <path
       style="fill:#a05a2c;stroke:none;stroke-width:1px;stroke-linecap:butt;stroke-linejoin:miter;stroke-opacity:1;fill-opacity:0.49803922000000000"
       d="m 1.6,18.4 c 0,0 17.6,-0.8 24.8,-0.8 8.305286,0 -24.8,2.4 -24.8,2.4 l 0,-1.6 z"
       id="path3689"
       transform="translate(0,1020.3622)"
       sodipodi:nodetypes="cscc" />
    <path
       style="fill:#a05a2c;stroke:none;stroke-width:1px;stroke-linecap:butt;stroke-linejoin:miter;stroke-opacity:1;fill-opacity:0.49803922000000000"
       d="m 62.4,24 c 0,0 -50.91601,0.658737 -38.4,0 15.2,-0.8 38.4,-1.6 38.4,-1.6 l 0,1.6 z"
       id="path3713"
       transform="translate(0,1020.3622)"
       sodipodi:nodetypes="cscc" />
    <path
       style="fill:#a05a2c;stroke:none;stroke-width:1px;stroke-linecap:butt;stroke-linejoin:miter;stroke-opacity:1;fill-opacity:0.49803922000000000"
       d="m 62.4,14.4 c 0,0 -22.4,0 -30.4,0 -9.881071,0 30.4,-1.6 30.4,-1.6 l 0,1.6 z"
       id="path3715"
       transform="translate(0,1020.3622)"
       sodipodi:nodetypes="cscc" />
    <path
       style="fill:#d38d5f;stroke:none"
       d="m 67.199998,1022.7622 c 2.55792,-1.8473 20.30765,-0.5232 30.4,-0.8 10.129522,-0.2778 24.800002,-0.8 27.200002,1.6 2.4,2.4 1.6,8 1.6,12.8 0,4.8 1.15014,11.6108 -1.6,13.6 -2.4,1.7359 -26.696522,0.5884 -36.800002,0.8 -10.428437,0.2184 -18.4,0.8 -20.8,-1.6 -2.4,-2.4 -1.6,-8 -1.6,-12.8 0,-4.8 -1.151591,-11.6129 1.6,-13.6 z"
       id="path2820-5"
       sodipodi:nodetypes="cssssssss" />
    <path
       style="fill:#c87137;stroke:none"
       d="m 123.40625,1022.831 c -0.43055,0.753 -0.75275,1.7365 -1,3.125 -0.79119,4.4431 2.3275,16.1302 -0.8125,20 -3.14,3.8697 -12.68985,1.1693 -23.187502,2.4062 -14.998861,1.7673 -26.334922,-3.2003 -30.40625,-0.8125 -0.525316,0.3081 -0.964424,0.6234 -1.34375,0.9375 0.158598,0.2439 0.330014,0.4863 0.53125,0.6875 2.4,2.4 10.384063,1.8122 20.8125,1.5938 10.10348,-0.2116 34.412502,0.9234 36.812502,-0.8125 2.75014,-1.9892 1.59375,-8.7938 1.59375,-13.5938 0,-4.8 0.80625,-10.4125 -1.59375,-12.8125 -0.2889,-0.2889 -0.79109,-0.509 -1.40625,-0.7187 z"
       id="path3660-4" />
    <path
       style="fill:#deaa87;stroke:none"
       d="m 109.8125,1021.8059 c -4.18917,0.01 -8.63893,0.1458 -12.437502,0.25 -10.09235,0.2767 -27.848329,-1.0661 -30.40625,0.7813 -2.751591,1.9871 -1.59375,8.7937 -1.59375,13.5937 0,4.8 -0.80625,10.4125 1.59375,12.8125 0.271324,0.2713 0.62201,0.5188 1.03125,0.7188 0.258478,-0.4708 0.477997,-1.0104 0.59375,-1.5313 1.6,-7.2 -2.240358,-18.2386 0.78125,-22.375 1.557819,-2.1326 10.417856,0.783 20.625,-1.1562 10.674442,-2.0281 23.439212,2.024 32.187502,0.3437 0.82646,-0.1588 1.78845,-0.7485 2.46875,-1.5 -0.0262,-0.028 -0.0355,-0.067 -0.0625,-0.094 -1.5,-1.5 -7.79929,-1.8537 -14.78125,-1.8438 z"
       id="path2820-1-2" />
    <path
       style="fill:#a05a2c;fill-opacity:0.49803922000000000;stroke:none"
       d="m 65.599998,1026.7622 c 0,0 15.2,-0.8 24.8,0 8.25524,0.688 -24.8,1.6 -24.8,1.6 l 0,-1.6 z"
       id="path3687-1"
       sodipodi:nodetypes="cscc" />
    <path
       style="fill:#a05a2c;fill-opacity:0.49803922000000000;stroke:none"
       d="m 65.599998,1038.7622 c 0,0 17.6,-0.8 24.8,-0.8 8.30529,0 -24.8,2.4 -24.8,2.4 l 0,-1.6 z"
       id="path3689-1"
       sodipodi:nodetypes="cscc" />
    <path
       style="fill:#a05a2c;fill-opacity:0.49803922000000000;stroke:none"
       d="m 126.4,1044.3622 c 0,0 -50.916012,0.6588 -38.400002,0 15.200002,-0.8 38.400002,-1.6 38.400002,-1.6 l 0,1.6 z"
       id="path3713-0"
       sodipodi:nodetypes="cscc" />
    <path
       style="fill:#a05a2c;fill-opacity:0.49803922000000000;stroke:none"
       d="m 126.4,1034.7622 c 0,0 -22.4,0 -30.400002,0 -9.881071,0 30.400002,-1.6 30.400002,-1.6 l 0,1.6 z"
       id="path3715-2"
       sodipodi:nodetypes="cscc" />
    <path
       style="fill:#d38d5f;stroke:none"
       d="m 131.2,1022.7622 c 2.55792,-1.8473 20.30765,-0.5232 30.4,-0.8 10.12952,-0.2778 24.8,-0.8 27.2,1.6 2.4,2.4 1.6,8 1.6,12.8 0,4.8 1.15014,11.6108 -1.6,13.6 -2.4,1.7359 -26.69652,0.5884 -36.8,0.8 -10.42844,0.2184 -18.4,0.8 -20.8,-1.6 -2.4,-2.4 -1.6,-8 -1.6,-12.8 0,-4.8 -1.15159,-11.6129 1.6,-13.6 z"
       id="path2820-5-2"
       sodipodi:nodetypes="cssssssss" />
    <path
       style="fill:#c87137;stroke:none"
       d="m 187.40625,1022.831 c -0.43055,0.753 -0.75275,1.7365 -1,3.125 -0.79119,4.4431 2.3275,16.1302 -0.8125,20 -3.14,3.8697 -12.68985,1.1693 -23.1875,2.4062 -14.99886,1.7673 -26.33492,-3.2003 -30.40625,-0.8125 -0.52532,0.3081 -0.96442,0.6234 -1.34375,0.9375 0.1586,0.2439 0.33001,0.4863 0.53125,0.6875 2.4,2.4 10.38406,1.8122 20.8125,1.5938 10.10348,-0.2116 34.4125,0.9234 36.8125,-0.8125 2.75014,-1.9892 1.59375,-8.7938 1.59375,-13.5938 0,-4.8 0.80625,-10.4125 -1.59375,-12.8125 -0.2889,-0.2889 -0.79109,-0.509 -1.40625,-0.7187 z"
       id="path3660-4-1" />
    <path
       style="fill:#deaa87;stroke:none"
       d="m 173.8125,1021.8059 c -4.18917,0.01 -8.63893,0.1458 -12.4375,0.25 -10.09235,0.2767 -27.84833,-1.0661 -30.40625,0.7813 -2.75159,1.9871 -1.59375,8.7937 -1.59375,13.5937 0,4.8 -0.80625,10.4125 1.59375,12.8125 0.27132,0.2713 0.62201,0.5188 1.03125,0.7188 0.25848,-0.4708 0.478,-1.0104 0.59375,-1.5313 1.6,-7.2 -2.24036,-18.2386 0.78125,-22.375 1.55782,-2.1326 10.41785,0.783 20.625,-1.1562 10.67444,-2.0281 23.43921,2.024 32.1875,0.3437 0.82646,-0.1588 1.78845,-0.7485 2.46875,-1.5 -0.0262,-0.028 -0.0355,-0.067 -0.0625,-0.094 -1.5,-1.5 -7.79929,-1.8537 -14.78125,-1.8438 z"
       id="path2820-1-2-9" />
    <path
       style="fill:#a05a2c;fill-opacity:0.49803922000000000;stroke:none"
       d="m 129.6,1026.7622 c 0,0 15.2,-0.8 24.8,0 8.25524,0.688 -24.8,1.6 -24.8,1.6 l 0,-1.6 z"
       id="path3687-1-3"
       sodipodi:nodetypes="cscc" />
    <path
       style="fill:#a05a2c;fill-opacity:0.49803922000000000;stroke:none"
       d="m 129.6,1038.7622 c 0,0 17.6,-0.8 24.8,-0.8 8.30529,0 -24.8,2.4 -24.8,2.4 l 0,-1.6 z"
       id="path3689-1-7"
       sodipodi:nodetypes="cscc" />
    <path
       style="fill:#a05a2c;fill-opacity:0.49803922000000000;stroke:none"
       d="m 190.4,1044.3622 c 0,0 -50.91601,0.6588 -38.4,0 15.2,-0.8 38.4,-1.6 38.4,-1.6 l 0,1.6 z"
       id="path3713-0-7"
       sodipodi:nodetypes="cscc" />
    <path
       style="fill:#a05a2c;fill-opacity:0.49803922000000000;stroke:none"
       d="m 190.4,1034.7622 c 0,0 -22.4,0 -30.4,0 -9.88107,0 30.4,-1.6 30.4,-1.6 l 0,1.6 z"
       id="path3715-2-2"
       sodipodi:nodetypes="cscc" />
    <path
       style="fill:#ffffff;stroke:none"
       d="m 194.4,1021.9622 c 2.62897,-1.9561 20.87176,-0.554 31.24445,-0.8471 10.4109,-0.2942 25.4889,-0.8471 27.95556,1.6942 2.46667,2.5413 1.64445,8.471 1.64445,13.5537 0,5.0826 1.18209,12.2944 -1.64444,14.4007 -2.46667,1.8381 -27.4381,0.6231 -37.82224,0.8471 -10.71812,0.2313 -18.91111,0.8471 -21.37778,-1.6942 -2.46667,-2.5413 -1.64444,-8.471 -1.64444,-13.5536 0,-5.0827 -1.18358,-12.2967 1.64444,-14.4008 z"
       id="path2820-3-8-1-1"
       sodipodi:nodetypes="cssssssss" />
    <path
       style="fill:#d38d5f;stroke:none"
       d="m 195.2,1022.7622 c 2.55792,-1.8473 20.30765,-0.5232 30.4,-0.8 10.12952,-0.2778 24.8,-0.8 27.2,1.6 2.4,2.4 1.6,8 1.6,12.8 0,4.8 1.15014,11.6108 -1.6,13.6 -2.4,1.7359 -26.69652,0.5884 -36.8,0.8 -10.42844,0.2184 -18.4,0.8 -20.8,-1.6 -2.4,-2.4 -1.6,-8 -1.6,-12.8 0,-4.8 -1.15159,-11.6129 1.6,-13.6 z"
       id="path2820-5-2-4"
       sodipodi:nodetypes="cssssssss" />
    <path
       style="fill:#c87137;stroke:none"
       d="m 251.40625,1022.831 c -0.43055,0.753 -0.75275,1.7365 -1,3.125 -0.79119,4.4431 2.3275,16.1302 -0.8125,20 -3.14,3.8697 -12.68985,1.1693 -23.1875,2.4062 -14.99886,1.7673 -26.33492,-3.2003 -30.40625,-0.8125 -0.52532,0.3081 -0.96442,0.6234 -1.34375,0.9375 0.1586,0.2439 0.33001,0.4863 0.53125,0.6875 2.4,2.4 10.38406,1.8122 20.8125,1.5938 10.10348,-0.2116 34.4125,0.9234 36.8125,-0.8125 2.75014,-1.9892 1.59375,-8.7938 1.59375,-13.5938 0,-4.8 0.80625,-10.4125 -1.59375,-12.8125 -0.2889,-0.2889 -0.79109,-0.509 -1.40625,-0.7187 z"
       id="path3660-4-1-1" />
    <path
       style="fill:#deaa87;stroke:none"
       d="m 237.8125,1021.8059 c -4.18917,0.01 -8.63893,0.1458 -12.4375,0.25 -10.09235,0.2767 -27.84833,-1.0661 -30.40625,0.7813 -2.75159,1.9871 -1.59375,8.7937 -1.59375,13.5937 0,4.8 -0.80625,10.4125 1.59375,12.8125 0.27132,0.2713 0.62201,0.5188 1.03125,0.7188 0.25848,-0.4708 0.478,-1.0104 0.59375,-1.5313 1.6,-7.2 -2.24036,-18.2386 0.78125,-22.375 1.55782,-2.1326 10.41785,0.783 20.625,-1.1562 10.67444,-2.0281 23.43921,2.024 32.1875,0.3437 0.82646,-0.1588 1.78845,-0.7485 2.46875,-1.5 -0.0262,-0.028 -0.0355,-0.067 -0.0625,-0.094 -1.5,-1.5 -7.79929,-1.8537 -14.78125,-1.8438 z"
       id="path2820-1-2-9-9" />
    <path
       style="fill:#a05a2c;fill-opacity:0.49803922000000000;stroke:none"
       d="m 193.6,1026.7622 c 0,0 15.2,-0.8 24.8,0 8.25524,0.688 -24.8,1.6 -24.8,1.6 l 0,-1.6 z"
       id="path3687-1-3-1"
       sodipodi:nodetypes="cscc" />
    <path
       style="fill:#a05a2c;fill-opacity:0.49803922000000000;stroke:none"
       d="m 193.6,1038.7622 c 0,0 17.6,-0.8 24.8,-0.8 8.30529,0 -24.8,2.4 -24.8,2.4 l 0,-1.6 z"
       id="path3689-1-7-7"
       sodipodi:nodetypes="cscc" />
    <path
       style="fill:#a05a2c;fill-opacity:0.49803922000000000;stroke:none"
       d="m 254.4,1044.3622 c 0,0 -50.91601,0.6588 -38.4,0 15.2,-0.8 38.4,-1.6 38.4,-1.6 l 0,1.6 z"
       id="path3713-0-7-7"
       sodipodi:nodetypes="cscc" />
    <path
       style="fill:#a05a2c;fill-opacity:0.49803922000000000;stroke:none"
       d="m 254.4,1034.7622 c 0,0 -22.4,0 -30.4,0 -9.88107,0 30.4,-1.6 30.4,-1.6 l 0,1.6 z"
       id="path3715-2-2-0"
       sodipodi:nodetypes="cscc" />
    <path
       style="fill:#261813;fill-opacity:0.75;stroke:none"
       d="m 129.6,1031.5622 c 0,0 10.43928,0.8071 18.92857,0.6214 8.44606,-0.1848 19.18572,-4.2178 23.98572,-3.8178 2.06381,0.172 -14.10125,3.5142 -17.31429,3.9964 -3.21304,0.4823 30.11596,3.443 24.8,4 -5.31595,0.557 -27.75506,-3.5963 -32,-3.2 -4.24494,0.3962 -18.4,0 -18.4,0 l 0,-1.6 z"
       id="path3687-1-3-3"
       sodipodi:nodetypes="cssssscc" />
    <path
       style="fill:#261813;fill-opacity:0.75;stroke:none"
       d="m 190.45783,1045.7758 c 0,0 -5.36547,-0.5834 -14.94641,-0.4621 -9.70549,0.1229 -23.73453,3.8043 -17.7393,1.9799 6.3107,-1.9204 12.40803,-3.194 18.91786,-2.9639 6.285,0.2222 13.76785,-0.1539 13.76785,-0.1539 l 0,1.6 z"
       id="path3713-0-7-5"
       sodipodi:nodetypes="cssscc" />
    <path
       style="fill:#261813;fill-opacity:0.75;stroke:none"
       d="m 145.51781,1043.1234 c -4.25005,0.7827 -15.68499,4.1283 -15.68499,4.1283 0,0 -0.0607,-1.0558 -0.0607,-1.0558 0,0 9.79745,-2.5052 16.15001,-3.946 6.10643,-1.385 19.04741,-1.6635 12.96428,-0.8682 -6.08313,0.7953 -9.11856,0.9589 -13.3686,1.7417 z"
       id="path3713-0-7-5-5"
       sodipodi:nodetypes="cccszz" />
  </g>
</svg>
