<?xml version="1.0" encoding="UTF-8" standalone="no"?>
<!-- Created with Inkscape (http://www.inkscape.org/) -->

<svg
   xmlns:dc="http://purl.org/dc/elements/1.1/"
   xmlns:cc="http://creativecommons.org/ns#"
   xmlns:rdf="http://www.w3.org/1999/02/22-rdf-syntax-ns#"
   xmlns:svg="http://www.w3.org/2000/svg"
   xmlns="http://www.w3.org/2000/svg"
   xmlns:sodipodi="http://sodipodi.sourceforge.net/DTD/sodipodi-0.dtd"
   xmlns:inkscape="http://www.inkscape.org/namespaces/inkscape"
   width="128"
   height="32"
   id="svg2"
   version="1.1"
   inkscape:version="0.47 r22583"
   sodipodi:docname="entity_smallsoftblock.svg"
   inkscape:export-filename="/home/cattaka/myfile/mydoc/eclipseAndroid/HungryCatBallMisc/resources/block/entity_smallsoftblock.png"
   inkscape:export-xdpi="90"
   inkscape:export-ydpi="90">
  <defs
     id="defs4">
    <inkscape:perspective
       sodipodi:type="inkscape:persp3d"
       inkscape:vp_x="0 : 526.18109 : 1"
       inkscape:vp_y="0 : 1000 : 0"
       inkscape:vp_z="744.09448 : 526.18109 : 1"
       inkscape:persp3d-origin="372.04724 : 350.78739 : 1"
       id="perspective10" />
    <inkscape:perspective
       id="perspective3638"
       inkscape:persp3d-origin="0.5 : 0.33333333 : 1"
       inkscape:vp_z="1 : 0.5 : 1"
       inkscape:vp_y="0 : 1000 : 0"
       inkscape:vp_x="0 : 0.5 : 1"
       sodipodi:type="inkscape:persp3d" />
    <inkscape:perspective
       id="perspective3670"
       inkscape:persp3d-origin="0.5 : 0.33333333 : 1"
       inkscape:vp_z="1 : 0.5 : 1"
       inkscape:vp_y="0 : 1000 : 0"
       inkscape:vp_x="0 : 0.5 : 1"
       sodipodi:type="inkscape:persp3d" />
    <inkscape:perspective
       id="perspective3699"
       inkscape:persp3d-origin="0.5 : 0.33333333 : 1"
       inkscape:vp_z="1 : 0.5 : 1"
       inkscape:vp_y="0 : 1000 : 0"
       inkscape:vp_x="0 : 0.5 : 1"
       sodipodi:type="inkscape:persp3d" />
    <inkscape:perspective
       id="perspective3725"
       inkscape:persp3d-origin="0.5 : 0.33333333 : 1"
       inkscape:vp_z="1 : 0.5 : 1"
       inkscape:vp_y="0 : 1000 : 0"
       inkscape:vp_x="0 : 0.5 : 1"
       sodipodi:type="inkscape:persp3d" />
    <inkscape:perspective
       id="perspective3747"
       inkscape:persp3d-origin="0.5 : 0.33333333 : 1"
       inkscape:vp_z="1 : 0.5 : 1"
       inkscape:vp_y="0 : 1000 : 0"
       inkscape:vp_x="0 : 0.5 : 1"
       sodipodi:type="inkscape:persp3d" />
    <inkscape:perspective
       id="perspective3793"
       inkscape:persp3d-origin="0.5 : 0.33333333 : 1"
       inkscape:vp_z="1 : 0.5 : 1"
       inkscape:vp_y="0 : 1000 : 0"
       inkscape:vp_x="0 : 0.5 : 1"
       sodipodi:type="inkscape:persp3d" />
    <inkscape:perspective
       id="perspective3839"
       inkscape:persp3d-origin="0.5 : 0.33333333 : 1"
       inkscape:vp_z="1 : 0.5 : 1"
       inkscape:vp_y="0 : 1000 : 0"
       inkscape:vp_x="0 : 0.5 : 1"
       sodipodi:type="inkscape:persp3d" />
    <inkscape:perspective
       id="perspective3885"
       inkscape:persp3d-origin="0.5 : 0.33333333 : 1"
       inkscape:vp_z="1 : 0.5 : 1"
       inkscape:vp_y="0 : 1000 : 0"
       inkscape:vp_x="0 : 0.5 : 1"
       sodipodi:type="inkscape:persp3d" />
    <inkscape:perspective
       id="perspective3907"
       inkscape:persp3d-origin="0.5 : 0.33333333 : 1"
       inkscape:vp_z="1 : 0.5 : 1"
       inkscape:vp_y="0 : 1000 : 0"
       inkscape:vp_x="0 : 0.5 : 1"
       sodipodi:type="inkscape:persp3d" />
    <inkscape:perspective
       id="perspective3929"
       inkscape:persp3d-origin="0.5 : 0.33333333 : 1"
       inkscape:vp_z="1 : 0.5 : 1"
       inkscape:vp_y="0 : 1000 : 0"
       inkscape:vp_x="0 : 0.5 : 1"
       sodipodi:type="inkscape:persp3d" />
    <inkscape:perspective
       id="perspective4619"
       inkscape:persp3d-origin="0.5 : 0.33333333 : 1"
       inkscape:vp_z="1 : 0.5 : 1"
       inkscape:vp_y="0 : 1000 : 0"
       inkscape:vp_x="0 : 0.5 : 1"
       sodipodi:type="inkscape:persp3d" />
    <inkscape:perspective
       id="perspective4641"
       inkscape:persp3d-origin="0.5 : 0.33333333 : 1"
       inkscape:vp_z="1 : 0.5 : 1"
       inkscape:vp_y="0 : 1000 : 0"
       inkscape:vp_x="0 : 0.5 : 1"
       sodipodi:type="inkscape:persp3d" />
    <inkscape:perspective
       id="perspective4663"
       inkscape:persp3d-origin="0.5 : 0.33333333 : 1"
       inkscape:vp_z="1 : 0.5 : 1"
       inkscape:vp_y="0 : 1000 : 0"
       inkscape:vp_x="0 : 0.5 : 1"
       sodipodi:type="inkscape:persp3d" />
  </defs>
  <sodipodi:namedview
     id="base"
     pagecolor="#ff00ff"
     bordercolor="#666666"
     borderopacity="1.0"
     inkscape:pageopacity="0"
     inkscape:pageshadow="2"
     inkscape:zoom="11.2"
     inkscape:cx="27.314604"
     inkscape:cy="14.434549"
     inkscape:document-units="px"
     inkscape:current-layer="layer1"
     showgrid="true"
     inkscape:window-width="1024"
     inkscape:window-height="695"
     inkscape:window-x="1280"
     inkscape:window-y="25"
     inkscape:window-maximized="1"
     inkscape:snap-grids="true">
    <inkscape:grid
       type="xygrid"
       id="grid2816"
       empspacing="5"
       visible="true"
       enabled="true"
       snapvisiblegridlinesonly="true"
       spacingx="0.8px"
       spacingy="0.8px"
       color="#0000ff"
       opacity="0.1254902"
       dotted="false" />
  </sodipodi:namedview>
  <metadata
     id="metadata7">
    <rdf:RDF>
      <cc:Work
         rdf:about="">
        <dc:format>image/svg+xml</dc:format>
        <dc:type
           rdf:resource="http://purl.org/dc/dcmitype/StillImage" />
        <dc:title></dc:title>
      </cc:Work>
    </rdf:RDF>
  </metadata>
  <g
     inkscape:label="レイヤー 1"
     inkscape:groupmode="layer"
     id="layer1"
     transform="translate(0,-1020.3622)">
    <path
       style="fill:#ffffff;stroke:none"
       d="m 1.857975,1021.9622 c 1.268435,-1.9561 10.070267,-0.554 15.074914,-0.8471 5.023083,-0.2942 12.297956,-0.8471 13.488082,1.6942 1.190124,2.5413 0.793414,8.471 0.793414,13.5537 0,5.0826 0.570337,12.2944 -0.793414,14.4007 -1.190126,1.8381 -13.238412,0.6231 -18.248582,0.8471 -5.171308,0.2313 -9.1242891,0.8471 -10.314414,-1.6942 -1.19012477,-2.5413 -0.7934165,-8.471 -0.7934165,-13.5536 0,-5.0827 -0.57105708,-12.2967 0.7934165,-14.4008 z"
       id="path2820-3"
       sodipodi:nodetypes="cssssssss" />
    <path
       style="fill:#d38d5f;stroke:none"
       d="m 2.2439613,1022.7622 c 1.2341529,-1.8473 9.7980947,-0.5232 14.6674797,-0.8 4.887322,-0.2778 11.965577,-0.8 13.123535,1.6 1.157958,2.4 0.771973,8 0.771973,12.8 0,4.8 0.554923,11.6108 -0.771973,13.6 -1.157959,1.7359 -12.880612,0.5884 -17.755371,0.8 -5.0315418,0.2184 -8.8776848,0.8 -10.0356437,-1.6 -1.1579589,-2.4 -0.7719726,-8 -0.7719726,-12.8 0,-4.8 -0.555623,-11.6129 0.7719726,-13.6 z"
       id="path2820"
       sodipodi:nodetypes="cssssssss" />
    <path
       style="fill:#c87137;stroke:none"
       d="m 29.362517,1022.831 c -0.207732,0.753 -0.363192,1.7365 -0.482485,3.125 -0.381734,4.443 1.12298,16.1302 -0.392015,20 -1.514999,3.8697 -6.122638,1.1693 -11.187574,2.4062 -7.236694,1.7673 -12.7061489,-3.2003 -14.6704952,-0.8125 -0.2534558,0.3081 -0.4653179,0.6234 -0.6483365,0.9375 0.07652,0.2439 0.1592262,0.4863 0.256319,0.6875 1.1579591,2.4 5.0101329,1.8122 10.0416747,1.5938 4.874759,-0.2116 16.603444,0.9234 17.761403,-0.8125 1.326895,-1.9892 0.768956,-8.7938 0.768956,-13.5938 0,-4.8 0.389003,-10.4125 -0.768956,-12.8125 -0.139387,-0.2889 -0.381686,-0.509 -0.678491,-0.7187 z"
       id="path3660" />
    <path
       style="fill:#deaa87;stroke:none"
       d="m 22.803764,1021.8059 c -2.021203,0.01 -4.168136,0.1458 -6.000882,0.25 -4.869385,0.2767 -13.4363417,-1.0661 -14.6704948,0.7813 -1.32759566,1.9871 -0.7689572,8.7937 -0.7689572,13.5937 0,4.8 -0.3890018,10.4125 0.7689572,12.8125 0.1309092,0.2713 0.3001091,0.5188 0.4975606,0.7188 0.1247112,-0.4708 0.2306253,-1.0104 0.2864741,-1.5313 0.7719726,-7.2 -1.0809343,-18.2386 0.3769398,-22.375 0.751621,-2.1326 5.0264372,0.783 9.9512113,-1.1562 5.150233,-2.0281 11.309017,2.024 15.529916,0.3437 0.398754,-0.1588 0.862897,-0.7485 1.191131,-1.5 -0.01265,-0.028 -0.01713,-0.067 -0.03013,-0.094 -0.723724,-1.5 -3.763025,-1.8537 -7.131701,-1.8438 z"
       id="path2820-1" />
    <path
       style="fill:#a05a2c;fill-opacity:0.49803922;stroke:none"
       d="m 1.4719887,1026.7622 c 0,0 7.3337399,-0.8 11.9655753,0 3.983011,0.6879 -11.9655753,1.6 -11.9655753,1.6 l 0,-1.6 z"
       id="path3687"
       sodipodi:nodetypes="cscc" />
    <path
       style="fill:#a05a2c;fill-opacity:0.49803922;stroke:none"
       d="m 1.4719887,1038.7622 c 0,0 8.4916992,-0.8 11.9655753,-0.8 4.007159,0 -11.9655753,2.4 -11.9655753,2.4 l 0,-1.6 z"
       id="path3689"
       sodipodi:nodetypes="cscc" />
    <path
       style="fill:#a05a2c;fill-opacity:0.49803922;stroke:none"
       d="m 30.806949,1044.3622 c 0,0 -24.5661042,0.6587 -18.527344,0 7.33374,-0.8 18.527344,-1.6 18.527344,-1.6 l 0,1.6 z"
       id="path3713"
       sodipodi:nodetypes="cscc" />
    <path
       style="fill:#a05a2c;fill-opacity:0.49803922;stroke:none"
       d="m 30.806949,1034.7622 c 0,0 -10.807616,0 -14.667481,0 -4.767449,0 14.667481,-1.6 14.667481,-1.6 l 0,1.6 z"
       id="path3715"
       sodipodi:nodetypes="cscc" />
    <path
       style="fill:#d38d5f;stroke:none"
       d="m 34.223191,1022.7622 c 1.234154,-1.8473 9.798096,-0.5232 14.667481,-0.8 4.887323,-0.2778 11.965577,-0.8 13.123536,1.6 1.15796,2.4 0.771973,8 0.771973,12.8 0,4.8 0.554924,11.6108 -0.771973,13.6 -1.157959,1.7359 -12.880615,0.5884 -17.755372,0.8 -5.03154,0.2184 -8.877682,0.8 -10.035645,-1.6 -1.157955,-2.4 -0.771975,-8 -0.771975,-12.8 0,-4.8 -0.555616,-11.6129 0.771975,-13.6 z"
       id="path2820-5"
       sodipodi:nodetypes="cssssssss" />
    <path
       style="fill:#c87137;stroke:none"
       d="m 61.341749,1022.831 c -0.207734,0.753 -0.363191,1.7365 -0.482483,3.125 -0.381737,4.4431 1.122978,16.1302 -0.392017,20 -1.514997,3.8697 -6.122636,1.1693 -11.187575,2.4062 -7.236694,1.7673 -12.706151,-3.2003 -14.670495,-0.8125 -0.253452,0.3081 -0.465319,0.6234 -0.648341,0.9375 0.07649,0.2439 0.159232,0.4863 0.256327,0.6875 1.157953,2.4 5.010131,1.8122 10.041671,1.5938 4.874757,-0.2116 16.603445,0.9234 17.761405,-0.8125 1.326894,-1.9892 0.768955,-8.7938 0.768955,-13.5938 0,-4.8 0.389003,-10.4125 -0.768955,-12.8125 -0.13939,-0.2889 -0.381689,-0.509 -0.678492,-0.7187 z"
       id="path3660-4" />
    <path
       style="fill:#deaa87;stroke:none"
       d="m 54.782996,1021.8059 c -2.021203,0.01 -4.168136,0.1458 -6.000883,0.25 -4.869385,0.2767 -13.436341,-1.0661 -14.670495,0.7813 -1.327592,1.9871 -0.768953,8.7937 -0.768953,13.5937 0,4.8 -0.38901,10.4125 0.768953,12.8125 0.130912,0.2713 0.30011,0.5188 0.497561,0.7188 0.124714,-0.4708 0.230624,-1.0104 0.286475,-1.5313 0.771975,-7.2 -1.080933,-18.2386 0.376939,-22.375 0.751617,-2.1326 5.026439,0.783 9.951209,-1.1562 5.150236,-2.0281 11.30902,2.024 15.529919,0.3437 0.398753,-0.1588 0.862898,-0.7485 1.191131,-1.5 -0.01265,-0.028 -0.01714,-0.067 -0.03013,-0.094 -0.723723,-1.5 -3.763024,-1.8537 -7.1317,-1.8438 z"
       id="path2820-1-2" />
    <path
       style="fill:#a05a2c;fill-opacity:0.49803922;stroke:none"
       d="m 33.451216,1026.7622 c 0,0 7.333743,-0.8 11.965581,0 3.98301,0.688 -11.965581,1.6 -11.965581,1.6 l 0,-1.6 z"
       id="path3687-1"
       sodipodi:nodetypes="cscc" />
    <path
       style="fill:#a05a2c;fill-opacity:0.49803922;stroke:none"
       d="m 33.451216,1038.7622 c 0,0 8.491705,-0.8 11.965581,-0.8 4.007159,0 -11.965581,2.4 -11.965581,2.4 l 0,-1.6 z"
       id="path3689-1"
       sodipodi:nodetypes="cscc" />
    <path
       style="fill:#a05a2c;fill-opacity:0.49803922;stroke:none"
       d="m 62.786181,1044.3622 c 0,0 -24.566105,0.6588 -18.527345,0 7.333741,-0.8 18.527345,-1.6 18.527345,-1.6 l 0,1.6 z"
       id="path3713-0"
       sodipodi:nodetypes="cscc" />
    <path
       style="fill:#a05a2c;fill-opacity:0.49803922;stroke:none"
       d="m 62.786181,1034.7622 c 0,0 -10.807617,0 -14.66748,0 -4.767447,0 14.66748,-1.6 14.66748,-1.6 l 0,1.6 z"
       id="path3715-2"
       sodipodi:nodetypes="cscc" />
    <path
       style="fill:#d38d5f;stroke:none"
       d="m 66.102102,1022.7622 c 1.234154,-1.8473 9.798092,-0.5232 14.667477,-0.8 4.887321,-0.2778 11.965576,-0.8 13.123537,1.6 1.157958,2.4 0.771971,8 0.771971,12.8 0,4.8 0.554924,11.6108 -0.771971,13.6 -1.157961,1.7359 -12.880615,0.5884 -17.755371,0.8 -5.031544,0.2184 -8.877691,0.8 -10.035643,-1.6 -1.157963,-2.4 -0.771975,-8 -0.771975,-12.8 0,-4.8 -0.555626,-11.6129 0.771975,-13.6 z"
       id="path2820-5-2"
       sodipodi:nodetypes="cssssssss" />
    <path
       style="fill:#c87137;stroke:none"
       d="m 93.220654,1022.831 c -0.207733,0.753 -0.36319,1.7365 -0.482482,3.125 -0.381735,4.4431 1.122978,16.1302 -0.392019,20 -1.514995,3.8697 -6.122636,1.1693 -11.187572,2.4062 -7.236691,1.7673 -12.706148,-3.2003 -14.670492,-0.8125 -0.253463,0.3081 -0.465316,0.6234 -0.64834,0.9375 0.07649,0.2439 0.15922,0.4863 0.256317,0.6875 1.157963,2.4 5.010135,1.8122 10.041679,1.5938 4.874756,-0.2116 16.603443,0.9234 17.761402,-0.8125 1.326895,-1.9892 0.768957,-8.7938 0.768957,-13.5938 0,-4.8 0.389,-10.4125 -0.768957,-12.8125 -0.139391,-0.2889 -0.381689,-0.509 -0.678493,-0.7187 z"
       id="path3660-4-1" />
    <path
       style="fill:#deaa87;stroke:none"
       d="m 86.661902,1021.8059 c -2.021203,0.01 -4.168136,0.1458 -6.000882,0.25 -4.869387,0.2767 -13.436339,-1.0661 -14.670491,0.7813 -1.327601,1.9871 -0.768963,8.7937 -0.768963,13.5937 0,4.8 -0.389,10.4125 0.768963,12.8125 0.1309,0.2713 0.30011,0.5188 0.49756,0.7188 0.124706,-0.4708 0.230627,-1.0104 0.286475,-1.5313 0.771966,-7.2 -1.080943,-18.2386 0.37694,-22.375 0.751617,-2.1326 5.026428,0.783 9.951207,-1.1562 5.150233,-2.0281 11.309017,2.024 15.529918,0.3437 0.398751,-0.1588 0.862896,-0.7485 1.191129,-1.5 -0.01265,-0.028 -0.01708,-0.067 -0.03013,-0.094 -0.723725,-1.5 -3.763026,-1.8537 -7.131703,-1.8438 z"
       id="path2820-1-2-9" />
    <path
       style="fill:#a05a2c;fill-opacity:0.49803922;stroke:none"
       d="m 65.330127,1026.7622 c 0,0 7.333742,-0.8 11.965576,0 3.983013,0.688 -11.965576,1.6 -11.965576,1.6 l 0,-1.6 z"
       id="path3687-1-3"
       sodipodi:nodetypes="cscc" />
    <path
       style="fill:#a05a2c;fill-opacity:0.49803922;stroke:none"
       d="m 65.330127,1038.7622 c 0,0 8.491699,-0.8 11.965576,-0.8 4.00716,0 -11.965576,2.4 -11.965576,2.4 l 0,-1.6 z"
       id="path3689-1-7"
       sodipodi:nodetypes="cscc" />
    <path
       style="fill:#a05a2c;fill-opacity:0.49803922;stroke:none"
       d="m 94.665087,1044.3622 c 0,0 -24.566102,0.6588 -18.527342,0 7.333738,-0.8 18.527342,-1.6 18.527342,-1.6 l 0,1.6 z"
       id="path3713-0-7"
       sodipodi:nodetypes="cscc" />
    <path
       style="fill:#a05a2c;fill-opacity:0.49803922;stroke:none"
       d="m 94.665087,1034.7622 c 0,0 -10.807616,0 -14.667479,0 -4.767448,0 14.667479,-1.6 14.667479,-1.6 l 0,1.6 z"
       id="path3715-2-2"
       sodipodi:nodetypes="cscc" />
    <path
       style="fill:#ffffff;stroke:none"
       d="m 97.595023,1021.9622 c 1.268432,-1.9561 10.070247,-0.554 15.074927,-0.8471 5.02302,-0.2942 12.29797,-0.8471 13.48808,1.6942 1.19012,2.5413 0.79342,8.471 0.79342,13.5537 0,5.0826 0.57033,12.2944 -0.79341,14.4007 -1.19012,1.8381 -13.23846,0.6231 -18.24865,0.8471 -5.17123,0.2313 -9.124248,0.8471 -10.314367,-1.6942 -1.190126,-2.5413 -0.793417,-8.471 -0.793417,-13.5536 0,-5.0827 -0.571058,-12.2967 0.793417,-14.4008 z"
       id="path2820-3-8-1-1"
       sodipodi:nodetypes="cssssssss" />
    <path
       style="fill:#d38d5f;stroke:none"
       d="m 97.981002,1022.7622 c 1.234154,-1.8473 9.798058,-0.5232 14.667518,-0.8 4.88727,-0.2778 11.96556,-0.8 13.12347,1.6 1.15801,2.4 0.77197,8 0.77197,12.8 0,4.8 0.55493,11.6108 -0.77197,13.6 -1.15791,1.7359 -12.88062,0.5884 -17.75532,0.8 -5.03156,0.2184 -8.877706,0.8 -10.035668,-1.6 -1.157953,-2.4 -0.771965,-8 -0.771965,-12.8 0,-4.8 -0.555626,-11.6129 0.771965,-13.6 z"
       id="path2820-5-2-4"
       sodipodi:nodetypes="cssssssss" />
    <path
       style="fill:#c87137;stroke:none"
       d="m 125.09954,1022.831 c -0.20774,0.753 -0.36321,1.7365 -0.48245,3.125 -0.38175,4.4431 1.123,16.1302 -0.39206,20 -1.51497,3.8697 -6.12264,1.1693 -11.18756,2.4062 -7.23664,1.7673 -12.70613,-3.2003 -14.670481,-0.8125 -0.253453,0.3081 -0.465316,0.6234 -0.64833,0.9375 0.07649,0.2439 0.15922,0.4863 0.256317,0.6875 1.157959,2.4 5.010134,1.8122 10.041694,1.5938 4.8747,-0.2116 16.60343,0.9234 17.76135,-0.8125 1.32689,-1.9892 0.76896,-8.7938 0.76896,-13.5938 0,-4.8 0.38905,-10.4125 -0.76896,-12.8125 -0.13939,-0.2889 -0.38166,-0.509 -0.67848,-0.7187 z"
       id="path3660-4-1-1" />
    <path
       style="fill:#deaa87;stroke:none"
       d="m 118.54081,1021.8059 c -2.0212,0.01 -4.16813,0.1458 -6.00086,0.25 -4.86944,0.2767 -13.436367,-1.0661 -14.670521,0.7813 -1.327591,1.9871 -0.768953,8.7937 -0.768953,13.5937 0,4.8 -0.389,10.4125 0.768953,12.8125 0.13091,0.2713 0.30011,0.5188 0.49756,0.7188 0.124716,-0.4708 0.230627,-1.0104 0.286476,-1.5313 0.771975,-7.2 -1.080934,-18.2386 0.376939,-22.375 0.751627,-2.1326 5.026416,0.783 9.951256,-1.1562 5.15017,-2.0281 11.30896,2.024 15.52988,0.3437 0.39872,-0.1588 0.86291,-0.7485 1.19116,-1.5 -0.013,-0.028 -0.0173,-0.067 -0.0301,-0.094 -0.72367,-1.5 -3.76301,-1.8537 -7.13166,-1.8438 z"
       id="path2820-1-2-9-9" />
    <path
       style="fill:#a05a2c;fill-opacity:0.49803922;stroke:none"
       d="m 97.209037,1026.7622 c 0,0 7.333693,-0.8 11.965543,0 3.983,0.688 -11.965543,1.6 -11.965543,1.6 l 0,-1.6 z"
       id="path3687-1-3-1"
       sodipodi:nodetypes="cscc" />
    <path
       style="fill:#a05a2c;fill-opacity:0.49803922;stroke:none"
       d="m 97.209037,1038.7622 c 0,0 8.491703,-0.8 11.965543,-0.8 4.00722,0 -11.965543,2.4 -11.965543,2.4 l 0,-1.6 z"
       id="path3689-1-7-7"
       sodipodi:nodetypes="cscc" />
    <path
       style="fill:#a05a2c;fill-opacity:0.49803922;stroke:none"
       d="m 126.54397,1044.3622 c 0,0 -24.56606,0.6588 -18.5273,0 7.33371,-0.8 18.5273,-1.6 18.5273,-1.6 l 0,1.6 z"
       id="path3713-0-7-7"
       sodipodi:nodetypes="cscc" />
    <path
       style="fill:#a05a2c;fill-opacity:0.49803922;stroke:none"
       d="m 126.54397,1034.7622 c 0,0 -10.80755,0 -14.66743,0 -4.76744,0 14.66743,-1.6 14.66743,-1.6 l 0,1.6 z"
       id="path3715-2-2-0"
       sodipodi:nodetypes="cscc" />
    <path
       style="fill:#261813;fill-opacity:0.75;stroke:none"
       d="m 65.330127,1031.5622 c 0,0 5.036771,0.8071 9.132713,0.6214 4.075078,-0.1848 9.256782,-4.2178 11.572699,-3.8178 0.995752,0.172 -6.803613,3.5142 -8.35385,3.9964 -1.550237,0.4823 14.530437,3.443 11.965577,4 -2.564855,0.557 -13.391343,-3.5963 -15.439454,-3.2 -2.048112,0.3962 -8.877685,0 -8.877685,0 l 0,-1.6 z"
       id="path3687-1-3-3"
       sodipodi:nodetypes="cssssscc" />
    <path
       style="fill:#261813;fill-opacity:0.75;stroke:none"
       d="m 94.692989,1045.7758 c 0,0 -2.588747,-0.5834 -7.211387,-0.4621 -4.682733,0.1229 -11.451504,3.8043 -8.558909,1.9799 3.044805,-1.9204 5.986663,-3.194 9.127545,-2.9639 3.032405,0.2222 6.642751,-0.1539 6.642751,-0.1539 l 0,1.6 z"
       id="path3713-0-7-5"
       sodipodi:nodetypes="cssscc" />
    <path
       style="fill:#261813;fill-opacity:0.75;stroke:none"
       d="m 73.010199,1043.1234 c -2.050579,0.7827 -7.567737,4.1283 -7.567737,4.1283 0,0 -0.02933,-1.0558 -0.02933,-1.0558 0,0 4.727103,-2.5052 7.792104,-3.946 2.946248,-1.385 9.190051,-1.6635 6.255045,-0.8682 -2.935006,0.7953 -4.399548,0.9589 -6.450119,1.7417 z"
       id="path3713-0-7-5-5"
       sodipodi:nodetypes="cccszz" />
  </g>
</svg>
