<?xml version="1.0" encoding="UTF-8" standalone="no"?>
<!-- Created with Inkscape (http://www.inkscape.org/) -->

<svg
   xmlns:dc="http://purl.org/dc/elements/1.1/"
   xmlns:cc="http://creativecommons.org/ns#"
   xmlns:rdf="http://www.w3.org/1999/02/22-rdf-syntax-ns#"
   xmlns:svg="http://www.w3.org/2000/svg"
   xmlns="http://www.w3.org/2000/svg"
   xmlns:sodipodi="http://sodipodi.sourceforge.net/DTD/sodipodi-0.dtd"
   xmlns:inkscape="http://www.inkscape.org/namespaces/inkscape"
   width="210mm"
   height="297mm"
   id="svg2"
   version="1.1"
   inkscape:version="0.47 r22583"
   sodipodi:docname="player.svg">
  <defs
     id="defs4">
    <inkscape:perspective
       sodipodi:type="inkscape:persp3d"
       inkscape:vp_x="0 : 526.18109 : 1"
       inkscape:vp_y="0 : 1000 : 0"
       inkscape:vp_z="744.09448 : 526.18109 : 1"
       inkscape:persp3d-origin="372.04724 : 350.78739 : 1"
       id="perspective10" />
    <inkscape:perspective
       id="perspective2857"
       inkscape:persp3d-origin="0.5 : 0.33333333 : 1"
       inkscape:vp_z="1 : 0.5 : 1"
       inkscape:vp_y="0 : 1000 : 0"
       inkscape:vp_x="0 : 0.5 : 1"
       sodipodi:type="inkscape:persp3d" />
    <inkscape:perspective
       id="perspective2883"
       inkscape:persp3d-origin="0.5 : 0.33333333 : 1"
       inkscape:vp_z="1 : 0.5 : 1"
       inkscape:vp_y="0 : 1000 : 0"
       inkscape:vp_x="0 : 0.5 : 1"
       sodipodi:type="inkscape:persp3d" />
    <inkscape:perspective
       id="perspective2905"
       inkscape:persp3d-origin="0.5 : 0.33333333 : 1"
       inkscape:vp_z="1 : 0.5 : 1"
       inkscape:vp_y="0 : 1000 : 0"
       inkscape:vp_x="0 : 0.5 : 1"
       sodipodi:type="inkscape:persp3d" />
    <inkscape:perspective
       id="perspective2929"
       inkscape:persp3d-origin="0.5 : 0.33333333 : 1"
       inkscape:vp_z="1 : 0.5 : 1"
       inkscape:vp_y="0 : 1000 : 0"
       inkscape:vp_x="0 : 0.5 : 1"
       sodipodi:type="inkscape:persp3d" />
    <inkscape:perspective
       id="perspective2975"
       inkscape:persp3d-origin="0.5 : 0.33333333 : 1"
       inkscape:vp_z="1 : 0.5 : 1"
       inkscape:vp_y="0 : 1000 : 0"
       inkscape:vp_x="0 : 0.5 : 1"
       sodipodi:type="inkscape:persp3d" />
    <inkscape:perspective
       id="perspective2997"
       inkscape:persp3d-origin="0.5 : 0.33333333 : 1"
       inkscape:vp_z="1 : 0.5 : 1"
       inkscape:vp_y="0 : 1000 : 0"
       inkscape:vp_x="0 : 0.5 : 1"
       sodipodi:type="inkscape:persp3d" />
    <inkscape:perspective
       id="perspective3046"
       inkscape:persp3d-origin="0.5 : 0.33333333 : 1"
       inkscape:vp_z="1 : 0.5 : 1"
       inkscape:vp_y="0 : 1000 : 0"
       inkscape:vp_x="0 : 0.5 : 1"
       sodipodi:type="inkscape:persp3d" />
    <inkscape:perspective
       id="perspective3101"
       inkscape:persp3d-origin="0.5 : 0.33333333 : 1"
       inkscape:vp_z="1 : 0.5 : 1"
       inkscape:vp_y="0 : 1000 : 0"
       inkscape:vp_x="0 : 0.5 : 1"
       sodipodi:type="inkscape:persp3d" />
    <inkscape:perspective
       id="perspective2866"
       inkscape:persp3d-origin="0.5 : 0.33333333 : 1"
       inkscape:vp_z="1 : 0.5 : 1"
       inkscape:vp_y="0 : 1000 : 0"
       inkscape:vp_x="0 : 0.5 : 1"
       sodipodi:type="inkscape:persp3d" />
    <inkscape:perspective
       id="perspective3674"
       inkscape:persp3d-origin="0.5 : 0.33333333 : 1"
       inkscape:vp_z="1 : 0.5 : 1"
       inkscape:vp_y="0 : 1000 : 0"
       inkscape:vp_x="0 : 0.5 : 1"
       sodipodi:type="inkscape:persp3d" />
    <inkscape:perspective
       id="perspective3699"
       inkscape:persp3d-origin="0.5 : 0.33333333 : 1"
       inkscape:vp_z="1 : 0.5 : 1"
       inkscape:vp_y="0 : 1000 : 0"
       inkscape:vp_x="0 : 0.5 : 1"
       sodipodi:type="inkscape:persp3d" />
    <inkscape:perspective
       id="perspective3662"
       inkscape:persp3d-origin="0.5 : 0.33333333 : 1"
       inkscape:vp_z="1 : 0.5 : 1"
       inkscape:vp_y="0 : 1000 : 0"
       inkscape:vp_x="0 : 0.5 : 1"
       sodipodi:type="inkscape:persp3d" />
    <inkscape:perspective
       id="perspective3684"
       inkscape:persp3d-origin="0.5 : 0.33333333 : 1"
       inkscape:vp_z="1 : 0.5 : 1"
       inkscape:vp_y="0 : 1000 : 0"
       inkscape:vp_x="0 : 0.5 : 1"
       sodipodi:type="inkscape:persp3d" />
    <inkscape:perspective
       id="perspective3706"
       inkscape:persp3d-origin="0.5 : 0.33333333 : 1"
       inkscape:vp_z="1 : 0.5 : 1"
       inkscape:vp_y="0 : 1000 : 0"
       inkscape:vp_x="0 : 0.5 : 1"
       sodipodi:type="inkscape:persp3d" />
    <inkscape:perspective
       id="perspective3741"
       inkscape:persp3d-origin="0.5 : 0.33333333 : 1"
       inkscape:vp_z="1 : 0.5 : 1"
       inkscape:vp_y="0 : 1000 : 0"
       inkscape:vp_x="0 : 0.5 : 1"
       sodipodi:type="inkscape:persp3d" />
    <inkscape:perspective
       id="perspective3763"
       inkscape:persp3d-origin="0.5 : 0.33333333 : 1"
       inkscape:vp_z="1 : 0.5 : 1"
       inkscape:vp_y="0 : 1000 : 0"
       inkscape:vp_x="0 : 0.5 : 1"
       sodipodi:type="inkscape:persp3d" />
    <inkscape:perspective
       id="perspective3785"
       inkscape:persp3d-origin="0.5 : 0.33333333 : 1"
       inkscape:vp_z="1 : 0.5 : 1"
       inkscape:vp_y="0 : 1000 : 0"
       inkscape:vp_x="0 : 0.5 : 1"
       sodipodi:type="inkscape:persp3d" />
    <inkscape:perspective
       id="perspective3810"
       inkscape:persp3d-origin="0.5 : 0.33333333 : 1"
       inkscape:vp_z="1 : 0.5 : 1"
       inkscape:vp_y="0 : 1000 : 0"
       inkscape:vp_x="0 : 0.5 : 1"
       sodipodi:type="inkscape:persp3d" />
    <inkscape:perspective
       id="perspective3843"
       inkscape:persp3d-origin="0.5 : 0.33333333 : 1"
       inkscape:vp_z="1 : 0.5 : 1"
       inkscape:vp_y="0 : 1000 : 0"
       inkscape:vp_x="0 : 0.5 : 1"
       sodipodi:type="inkscape:persp3d" />
    <inkscape:perspective
       id="perspective3865"
       inkscape:persp3d-origin="0.5 : 0.33333333 : 1"
       inkscape:vp_z="1 : 0.5 : 1"
       inkscape:vp_y="0 : 1000 : 0"
       inkscape:vp_x="0 : 0.5 : 1"
       sodipodi:type="inkscape:persp3d" />
    <inkscape:perspective
       id="perspective3887"
       inkscape:persp3d-origin="0.5 : 0.33333333 : 1"
       inkscape:vp_z="1 : 0.5 : 1"
       inkscape:vp_y="0 : 1000 : 0"
       inkscape:vp_x="0 : 0.5 : 1"
       sodipodi:type="inkscape:persp3d" />
    <inkscape:perspective
       id="perspective3909"
       inkscape:persp3d-origin="0.5 : 0.33333333 : 1"
       inkscape:vp_z="1 : 0.5 : 1"
       inkscape:vp_y="0 : 1000 : 0"
       inkscape:vp_x="0 : 0.5 : 1"
       sodipodi:type="inkscape:persp3d" />
    <inkscape:perspective
       id="perspective3944"
       inkscape:persp3d-origin="0.5 : 0.33333333 : 1"
       inkscape:vp_z="1 : 0.5 : 1"
       inkscape:vp_y="0 : 1000 : 0"
       inkscape:vp_x="0 : 0.5 : 1"
       sodipodi:type="inkscape:persp3d" />
    <inkscape:perspective
       id="perspective3966"
       inkscape:persp3d-origin="0.5 : 0.33333333 : 1"
       inkscape:vp_z="1 : 0.5 : 1"
       inkscape:vp_y="0 : 1000 : 0"
       inkscape:vp_x="0 : 0.5 : 1"
       sodipodi:type="inkscape:persp3d" />
    <inkscape:perspective
       id="perspective3988"
       inkscape:persp3d-origin="0.5 : 0.33333333 : 1"
       inkscape:vp_z="1 : 0.5 : 1"
       inkscape:vp_y="0 : 1000 : 0"
       inkscape:vp_x="0 : 0.5 : 1"
       sodipodi:type="inkscape:persp3d" />
    <inkscape:perspective
       id="perspective4019"
       inkscape:persp3d-origin="0.5 : 0.33333333 : 1"
       inkscape:vp_z="1 : 0.5 : 1"
       inkscape:vp_y="0 : 1000 : 0"
       inkscape:vp_x="0 : 0.5 : 1"
       sodipodi:type="inkscape:persp3d" />
    <inkscape:perspective
       id="perspective4041"
       inkscape:persp3d-origin="0.5 : 0.33333333 : 1"
       inkscape:vp_z="1 : 0.5 : 1"
       inkscape:vp_y="0 : 1000 : 0"
       inkscape:vp_x="0 : 0.5 : 1"
       sodipodi:type="inkscape:persp3d" />
    <inkscape:perspective
       id="perspective4063"
       inkscape:persp3d-origin="0.5 : 0.33333333 : 1"
       inkscape:vp_z="1 : 0.5 : 1"
       inkscape:vp_y="0 : 1000 : 0"
       inkscape:vp_x="0 : 0.5 : 1"
       sodipodi:type="inkscape:persp3d" />
    <inkscape:perspective
       id="perspective4085"
       inkscape:persp3d-origin="0.5 : 0.33333333 : 1"
       inkscape:vp_z="1 : 0.5 : 1"
       inkscape:vp_y="0 : 1000 : 0"
       inkscape:vp_x="0 : 0.5 : 1"
       sodipodi:type="inkscape:persp3d" />
    <inkscape:perspective
       id="perspective4107"
       inkscape:persp3d-origin="0.5 : 0.33333333 : 1"
       inkscape:vp_z="1 : 0.5 : 1"
       inkscape:vp_y="0 : 1000 : 0"
       inkscape:vp_x="0 : 0.5 : 1"
       sodipodi:type="inkscape:persp3d" />
    <inkscape:perspective
       id="perspective4135"
       inkscape:persp3d-origin="0.5 : 0.33333333 : 1"
       inkscape:vp_z="1 : 0.5 : 1"
       inkscape:vp_y="0 : 1000 : 0"
       inkscape:vp_x="0 : 0.5 : 1"
       sodipodi:type="inkscape:persp3d" />
    <inkscape:perspective
       id="perspective4157"
       inkscape:persp3d-origin="0.5 : 0.33333333 : 1"
       inkscape:vp_z="1 : 0.5 : 1"
       inkscape:vp_y="0 : 1000 : 0"
       inkscape:vp_x="0 : 0.5 : 1"
       sodipodi:type="inkscape:persp3d" />
    <inkscape:perspective
       id="perspective4204"
       inkscape:persp3d-origin="0.5 : 0.33333333 : 1"
       inkscape:vp_z="1 : 0.5 : 1"
       inkscape:vp_y="0 : 1000 : 0"
       inkscape:vp_x="0 : 0.5 : 1"
       sodipodi:type="inkscape:persp3d" />
    <inkscape:perspective
       id="perspective4226"
       inkscape:persp3d-origin="0.5 : 0.33333333 : 1"
       inkscape:vp_z="1 : 0.5 : 1"
       inkscape:vp_y="0 : 1000 : 0"
       inkscape:vp_x="0 : 0.5 : 1"
       sodipodi:type="inkscape:persp3d" />
  </defs>
  <sodipodi:namedview
     id="base"
     pagecolor="#ffffff"
     bordercolor="#666666"
     borderopacity="1.0"
     inkscape:pageopacity="0.0"
     inkscape:pageshadow="2"
     inkscape:zoom="1"
     inkscape:cx="311.26415"
     inkscape:cy="937.74314"
     inkscape:document-units="px"
     inkscape:current-layer="layer1"
     showgrid="true"
     inkscape:window-width="1024"
     inkscape:window-height="695"
     inkscape:window-x="0"
     inkscape:window-y="25"
     inkscape:window-maximized="1"
     inkscape:snap-grids="true"
     inkscape:snap-to-guides="true"
     inkscape:snap-page="false">
    <inkscape:grid
       type="xygrid"
       id="grid2816" />
  </sodipodi:namedview>
  <metadata
     id="metadata7">
    <rdf:RDF>
      <cc:Work
         rdf:about="">
        <dc:format>image/svg+xml</dc:format>
        <dc:type
           rdf:resource="http://purl.org/dc/dcmitype/StillImage" />
        <dc:title></dc:title>
      </cc:Work>
    </rdf:RDF>
  </metadata>
  <g
     inkscape:label="レイヤー 1"
     inkscape:groupmode="layer"
     id="layer1">
    <path
       style="fill:#ffd42a;stroke:#000000;stroke-width:1px;stroke-linecap:butt;stroke-linejoin:miter;stroke-opacity:1"
       d="m 120,102.04722 c -42.758626,0 -80.133304,60.31497 -80.133304,100.52494 0,43.69308 46.744426,60.31496 80.133304,60.31496 33.38887,0 80.1333,-20.96996 80.1333,-60.31496 0,-40.20997 -37.37468,-100.52494 -80.1333,-100.52494 z"
       id="path2822"
       sodipodi:nodetypes="czzzz" />
    <path
       sodipodi:type="arc"
       style="fill:#000000"
       id="path2847"
       sodipodi:cx="165"
       sodipodi:cy="52.362183"
       sodipodi:rx="5"
       sodipodi:ry="10"
       d="m 170,52.362183 a 5,10 0 1 1 -10,0 5,10 0 1 1 10,0 z"
       transform="matrix(1.0016663,0,0,1.0052494,-70.316592,99.672644)" />
    <path
       sodipodi:type="arc"
       style="fill:#000000"
       id="path2847-8"
       sodipodi:cx="165"
       sodipodi:cy="52.362183"
       sodipodi:rx="5"
       sodipodi:ry="10"
       d="m 170,52.362183 a 5,10 0 1 1 -10,0 5,10 0 1 1 10,0 z"
       transform="matrix(1.0016663,0,0,1.0052494,-20.233279,99.672644)" />
    <path
       style="fill:#aa4400;stroke:#000000;stroke-width:1px;stroke-linecap:butt;stroke-linejoin:miter;stroke-opacity:1"
       d="m 120,162.36218 c 3.59609,0 9.71755,0.27468 10.01666,4.021 0.29911,3.74633 -6.12288,6.0315 -10.01666,6.0315 -3.89378,0 -10.31578,-2.28517 -10.01667,-6.0315 0.29912,-3.74632 6.42057,-4.021 10.01667,-4.021 z"
       id="path2871"
       sodipodi:nodetypes="czzzz" />
    <path
       style="fill:none;stroke:#000000;stroke-width:1px;stroke-linecap:butt;stroke-linejoin:miter;stroke-opacity:1"
       d="m 120.35774,172.41468 c 0,0 -6.3666,20.28449 -20.39107,20.28449 -16.027657,0 -20.033324,-10.232 -20.033324,-10.232"
       id="path2873"
       sodipodi:nodetypes="css" />
    <path
       style="fill:none;stroke:#000000;stroke-width:1px;stroke-linecap:butt;stroke-linejoin:miter;stroke-opacity:1"
       d="m 119.64226,172.41468 c 0,0 6.36659,20.28449 20.39106,20.28449 16.02766,0 20.03333,-10.232 20.03333,-10.232"
       id="path2873-3"
       sodipodi:nodetypes="css" />
    <path
       style="fill:#ffd42a;stroke:#000000;stroke-width:1px;stroke-linecap:butt;stroke-linejoin:miter;stroke-opacity:1"
       d="m 99.96667,108.07872 c 0,0 -27.488574,-25.039811 -40.066649,-16.083982 -12.578075,8.955822 0,52.272962 0,52.272962"
       id="path2943"
       sodipodi:nodetypes="czz" />
    <path
       style="fill:#ffd42a;stroke:#000000;stroke-width:1px;stroke-linecap:butt;stroke-linejoin:miter;stroke-opacity:1"
       d="m 340.38328,102.04722 c -42.75862,0 -90.14996,70.36746 -90.14996,110.57744 0,43.69308 56.76108,50.26246 90.14996,50.26246 33.38889,0 70.11664,-20.96996 70.11664,-60.31496 0,-40.20997 -27.35801,-100.52494 -70.11664,-100.52494 z"
       id="path2822-6"
       sodipodi:nodetypes="czzzz" />
    <path
       sodipodi:type="arc"
       style="fill:#000000"
       id="path2847-8-7"
       sodipodi:cx="165"
       sodipodi:cy="52.362183"
       sodipodi:rx="5"
       sodipodi:ry="10"
       d="m 170,52.362183 a 5,10 0 1 1 -10,0 5,10 0 1 1 10,0 z"
       transform="matrix(1.0016663,0,0,1.0052494,210.16667,99.672644)" />
    <path
       style="fill:#aa4400;stroke:#000000;stroke-width:0.68799883px;stroke-linecap:butt;stroke-linejoin:miter;stroke-opacity:1"
       d="m 404.84766,162.04854 c 1.6022,0 4.32956,0.29182 4.46284,4.27192 0.13322,3.98009 -2.728,6.40786 -4.46284,6.40786 -1.73483,0 -4.59611,-2.42777 -4.46283,-6.40786 0.13323,-3.9801 2.86062,-4.27192 4.46283,-4.27192 z"
       id="path2871-4"
       sodipodi:nodetypes="czzzz" />
    <path
       style="fill:none;stroke:#000000;stroke-width:0.709714px;stroke-linecap:butt;stroke-linejoin:miter;stroke-opacity:1"
       d="m 404.48992,172.41468 c 0,0 -3.11712,20.86811 -9.9836,20.86811 -7.84726,0 -9.80846,-10.52639 -9.80846,-10.52639"
       id="path2873-39"
       sodipodi:nodetypes="css" />
    <path
       style="fill:#ffd42a;stroke:#000000;stroke-width:1px;stroke-linecap:butt;stroke-linejoin:miter;stroke-opacity:1"
       d="m 520,102.04729 c -42.75863,0 -80.1333,60.31496 -80.1333,100.52494 0,43.69307 46.74442,60.31495 80.1333,60.31495 33.38888,0 80.1333,-20.96996 80.1333,-60.31495 0,-40.20998 -37.37467,-100.52494 -80.1333,-100.52494 z"
       id="path2822-5"
       sodipodi:nodetypes="czzzz" />
    <path
       style="fill:#ffd42a;stroke:#000000;stroke-width:1px;stroke-linecap:butt;stroke-linejoin:miter;stroke-opacity:1"
       d="m 499.96668,106.38318 c 0,0 -27.48857,-23.029309 -40.06665,-14.07348 -12.57809,8.95581 0,50.26245 0,50.26245"
       id="path2943-9"
       sodipodi:nodetypes="czz" />
    <path
       style="fill:#ffd42a;stroke:#000000;stroke-width:1px;stroke-linecap:butt;stroke-linejoin:miter;stroke-opacity:1"
       d="m 540.03333,106.38318 c 0,0 27.48856,-23.029309 40.06665,-14.07348 12.57808,8.95581 0,50.26245 0,50.26245"
       id="path2943-4-0"
       sodipodi:nodetypes="czz" />
    <path
       style="fill:#ffd42a;stroke:#000000;stroke-width:1px;stroke-linecap:butt;stroke-linejoin:miter;stroke-opacity:1"
       d="m 530,246.36218 c 0,0 2.00334,30.15748 -10.01666,30.15748 -12.01999,0 -10.01666,-30.15748 -10.01666,-30.15748"
       id="path3091"
       sodipodi:nodetypes="css" />
    <path
       style="fill:#f4d7d7;stroke:none"
       d="m 93.956674,112.09971 c 0,0 -19.242001,-15.352869 -28.046655,-9.38233 -8.804655,5.97056 0,33.50832 0,33.50832"
       id="path2943-1"
       sodipodi:nodetypes="czz" />
    <path
       style="fill:#ffd42a;stroke:#000000;stroke-width:1px;stroke-linecap:butt;stroke-linejoin:miter;stroke-opacity:1"
       d="m 140.03332,108.07872 c 0,0 27.48857,-25.039813 40.06665,-16.083984 12.57808,8.955824 0,52.272964 0,52.272964"
       id="path2943-93"
       sodipodi:nodetypes="czz" />
    <path
       style="fill:#f4d7d7;stroke:none"
       d="m 146.04332,112.09971 c 0,0 19.24201,-15.352871 28.04665,-9.38233 8.80465,5.97055 0,33.50832 0,33.50832"
       id="path2943-1-8"
       sodipodi:nodetypes="czz" />
    <path
       style="fill:#ff6600;stroke:none"
       d="m 107.35774,104.41468 c 0,0 2.62559,23.76902 4.6211,23.81614 2.01115,0.0475 0.3789,-24.81614 0.3789,-24.81614"
       id="path2858"
       sodipodi:nodetypes="csc" />
    <path
       style="fill:#ff6600;stroke:none"
       d="m 133,104.36218 c 0,0 -3.4637,23.769 -5.45921,23.81612 C 125.52965,128.2258 127,103.36218 127,103.36218"
       id="path2858-3"
       sodipodi:nodetypes="csc" />
    <path
       style="fill:#ff6600;stroke:none"
       d="m 107,104.36218 c 0,0 3.62559,23.76902 5.6211,23.81614 2.01115,0.0475 0.3789,-24.81614 0.3789,-24.81614"
       id="path2858-1"
       sodipodi:nodetypes="csc" />
    <path
       style="fill:#ff6600;stroke:none"
       d="m 48,167.36218 c 0,0 23,5 23,3 0,-2 -20,-10 -20,-10"
       id="path2858-1-7"
       sodipodi:nodetypes="csc" />
    <path
       style="fill:#ff6600;stroke:none"
       d="m 192,167.36218 c 0,0 -23,5 -23,3 0,-2 20,-10 20,-10"
       id="path2858-1-7-7"
       sodipodi:nodetypes="csc" />
    <path
       style="fill:#ff6600;stroke:none"
       d="m 533,104.36218 c 0,0 -3.00449,37.95288 -5,38 -2.01114,0.0475 -1,-39 -1,-39"
       id="path2858-3-3"
       sodipodi:nodetypes="csc" />
    <path
       style="fill:#ff6600;stroke:none"
       d="m 507,104.36218 c 0,0 3.00449,37.95288 5,38 2.01115,0.0475 1,-39 1,-39"
       id="path2858-1-0"
       sodipodi:nodetypes="csc" />
    <path
       style="fill:#ff6600;stroke:none"
       d="m 448,167.36217 c 0,0 32,7.00001 32,5.00001 0,-2 -29,-12.00001 -29,-12.00001"
       id="path2858-1-7-2"
       sodipodi:nodetypes="csc" />
    <path
       style="fill:#ff6600;stroke:none"
       d="m 592,167.36217 c 0,0 -32,7.00001 -32,5.00001 0,-2 29,-12.00001 29,-12.00001"
       id="path2858-1-7-7-9"
       sodipodi:nodetypes="csc" />
    <path
       style="fill:#ff6600;stroke:none"
       d="m 520,242.36218 c -5,0 -5,-13.21488 -5,-25 0,-11.78511 0,-50 5,-50 5,1e-5 5,38.21489 5,50 0,11.78512 0,25 -5,25 z"
       id="path3833"
       sodipodi:nodetypes="cssss" />
    <path
       style="fill:#ff6600;stroke:none"
       d="m 520,192.36218 c -10.13794,0 -30,0 -30,-5 0,-5 19.86206,-5 30,-5 10.13794,0 30,0 30,5 0,5 -19.86206,5 -30,5 z"
       id="path3833-9"
       sodipodi:nodetypes="cssss" />
    <path
       style="fill:#ff6600;stroke:none"
       d="m 520,212.36218 c -11.89771,0 -35,0 -35,-7 0,-3 23.29055,-3 35,-3 11.70945,0 35,0 35,3 0,7 -23.10229,7 -35,7 z"
       id="path3833-9-1"
       sodipodi:nodetypes="cssss" />
    <path
       style="fill:#ff6600;stroke:none"
       d="m 520,232.36218 c -10.34945,0 -30,0 -30,-8 0,-2 19.9778,-2 30,-2 10.0222,0 30,0 30,2 0,8 -19.65055,8 -30,8 z"
       id="path3833-9-1-7"
       sodipodi:nodetypes="cssss" />
    <path
       style="fill:#ff6600;stroke:none"
       d="m 520,275.96218 c -3.87011,0 -7,-3.6 -7.8,-8.6 -0.16112,-1.00699 5.17872,-1 7.8,-1 2.62128,0 7.96112,-0.007 7.8,1 -0.8,5 -3.92989,8.6 -7.8,8.6 z"
       id="path3833-9-1-7-8"
       sodipodi:nodetypes="cssss" />
    <path
       style="fill:#ff6600;stroke:none"
       d="m 520,248.36218 c -3.24473,0 -9,1.00001 -9,3 0,2 5.85787,1 9,1 3.14213,0 9,1 9,-1 0,-2 -5.75527,-3 -9,-3 z"
       id="path3833-9-1-7-4"
       sodipodi:nodetypes="cssss" />
    <path
       style="fill:#ff6600;stroke:none"
       d="m 520,256.36218 c -3.24473,0 -8.6,1.00001 -8.6,3 0,2 5.45787,1 8.6,1 3.14213,0 8.6,1 8.6,-1 0,-2 -5.35527,-3 -8.6,-3 z"
       id="path3833-9-1-7-4-5"
       sodipodi:nodetypes="cssss" />
    <path
       style="fill:#ffd42a;stroke:#000000;stroke-width:1px;stroke-linecap:butt;stroke-linejoin:miter;stroke-opacity:1"
       d="m 270.00005,247.36218 c 0,0 -33.36394,9.81147 -36.47494,-1.79896 -3.11101,-11.61041 20.47494,-16.20104 20.47494,-16.20104"
       id="path3091-1"
       sodipodi:nodetypes="css" />
    <path
       style="fill:#ff6600;stroke:none"
       d="m 234.0679,245.43503 c -1.00166,-3.73824 1.6656,-8.39302 6.28818,-10.45985 0.93097,-0.41626 2.30627,5.44323 2.98471,7.97519 0.67844,2.53196 2.06725,7.68804 1.05286,7.79304 -5.03668,0.52135 -9.32409,-1.57014 -10.32575,-5.30838 z"
       id="path3833-9-1-7-8-1"
       sodipodi:nodetypes="cssss" />
    <path
       style="fill:#ff6600;stroke:none"
       d="m 260.72746,238.29162 c -0.8398,-3.13416 -3.29531,-8.43451 -5.22715,-7.91687 -1.93186,0.51764 0.5502,5.91709 1.36344,8.95215 0.81324,3.03507 1.36345,8.95215 3.2953,8.43451 1.93185,-0.51763 1.4082,-6.33562 0.56841,-9.46979 z"
       id="path3833-9-1-7-4-7"
       sodipodi:nodetypes="cssss" />
    <path
       style="fill:#ff6600;stroke:none"
       d="m 253.00005,240.36218 c -0.8398,-3.13417 -3.19178,-8.04814 -5.12362,-7.53051 -1.93185,0.51764 0.44667,5.53072 1.25992,8.56578 0.81324,3.03507 1.25991,8.56578 3.19176,8.04815 1.93186,-0.51764 1.51174,-5.94925 0.67194,-9.08342 z"
       id="path3833-9-1-7-4-5-8"
       sodipodi:nodetypes="cssss" />
    <path
       style="fill:#ff6600;stroke:none"
       d="m 335.00005,169.36218 c -10.13794,0 -40,3 -40,-2 0,-3 29.86206,-5 40,-5 10.13794,0 30,2 30,5 0,5 -19.86206,2 -30,2 z"
       id="path3833-9-7"
       sodipodi:nodetypes="cssss" />
    <path
       style="fill:#ff6600;stroke:none"
       d="m 340.00005,110.36218 c -35,0 -60,47 -60,42 0,-3 25,-47 60,-47 25,0 40,19 40,22 0,5 -10,-17 -40,-17 z"
       id="path3833-9-7-8"
       sodipodi:nodetypes="cssss" />
    <path
       style="fill:#ffd42a;stroke:#000000;stroke-width:1px;stroke-linecap:butt;stroke-linejoin:miter;stroke-opacity:1"
       d="m 350.39995,112.09972 c 0,0 -17.47191,-29.060811 -30.04999,-20.104982 -12.57808,8.955822 -20.03333,50.262462 -20.03333,50.262462"
       id="path2943-6"
       sodipodi:nodetypes="czz" />
    <path
       style="fill:#f4d7d7;stroke:none"
       d="m 346.39328,112.09971 c 0,0 -13.78028,-19.516115 -18.02999,-18.094477 -6.01,2.010499 -6.01,38.199467 -6.01,38.199467"
       id="path2943-1-6"
       sodipodi:nodetypes="csc" />
    <path
       style="fill:#ff6600;stroke:none"
       d="m 255.00005,222.36218 c -4,0 -4,-3.21488 -4,-15 0,-12 13,-46 18,-46 3,0 -13,26 -13,46 0,11.78512 1,15 -1,15 z"
       id="path3833-8"
       sodipodi:nodetypes="cssss" />
    <path
       style="fill:#ff6600;stroke:none"
       d="m 261.00005,177.36218 c 0,-5 4,-5 4,-10 10.13794,0 25,0 25,5 0,5 -18.86206,5 -29,5 z"
       id="path3833-9-3"
       sodipodi:nodetypes="ccsc" />
    <path
       style="fill:#ff6600;stroke:none"
       d="m 255.00005,197.36218 c 0,-4.99999 3,-4.99999 3,-10 11.70945,0 35,0 35,3 0,7 -26.10229,7 -38,7 z"
       id="path3833-9-1-71"
       sodipodi:nodetypes="ccsc" />
    <path
       style="fill:#ff6600;stroke:none"
       d="m 254.00005,217.36218 c 0,-5 0,-5 0,-10 10.0222,0 30,0 30,2 0,8 -19.65055,8 -30,8 z"
       id="path3833-9-1-7-5"
       sodipodi:nodetypes="ccsc" />
    <path
       style="fill:#ffffff;stroke:none"
       d="m 120,197.36218 c -25,0 -40,20 -40,35 0,20 24.72088,25 40,25 15,0 40,-5 40,-25 0,-15.20997 -15,-35 -40,-35 z"
       id="path2822-9"
       sodipodi:nodetypes="cszss" />
    <path
       style="fill:#ffd42a;stroke:#000000;stroke-width:1px;stroke-linecap:butt;stroke-linejoin:miter;stroke-opacity:1"
       d="m 79.933346,202.21314 c 0,0 14.911547,14.66512 10.016663,20.46401 -4.506399,5.33865 -20.033326,-6.0315 -20.033326,-6.0315"
       id="path2919"
       sodipodi:nodetypes="css" />
    <path
       style="fill:#ffd42a;stroke:#000000;stroke-width:1px;stroke-linecap:butt;stroke-linejoin:miter;stroke-opacity:1"
       d="m 160.06665,202.57216 c 0,0 -14.91155,14.66513 -10.01666,20.46401 4.50639,5.33865 20.03332,-6.03149 20.03332,-6.03149"
       id="path2919-3"
       sodipodi:nodetypes="css" />
    <path
       style="fill:#ffffff;stroke:none"
       d="m 409.90005,202.36218 c -20.50328,2.12091 -43.65938,29.65182 -39.9,54.4 27.17157,-11.92512 39.24264,-31.34454 39.9,-54.4 z"
       id="path2822-9-9"
       sodipodi:nodetypes="ccc" />
    <path
       style="fill:#ffd42a;stroke:#000000;stroke-width:1px;stroke-linecap:butt;stroke-linejoin:miter;stroke-opacity:1"
       d="m 378.4466,202.21314 c 0,0 14.91155,14.66512 10.01666,20.46401 -4.50639,5.33865 -20.03332,-6.0315 -20.03332,-6.0315"
       id="path2919-4"
       sodipodi:nodetypes="css" />
    <rect
       style="fill:none;stroke:#000000;stroke-width:1;stroke-opacity:1"
       id="rect4194"
       width="199.99998"
       height="200"
       x="20.000015"
       y="82.362183" />
    <rect
       style="fill:none;stroke:#000000;stroke-width:1;stroke-opacity:1"
       id="rect4194-5"
       width="200.00005"
       height="200"
       x="220"
       y="82.362183" />
    <rect
       style="fill:none;stroke:#000000;stroke-width:1;stroke-opacity:1"
       id="rect4194-1"
       width="199.99998"
       height="200"
       x="420"
       y="82.362183" />
  </g>
</svg>
