<?xml version="1.0" encoding="UTF-8" standalone="no"?>
<!-- Created with Inkscape (http://www.inkscape.org/) -->

<svg
   xmlns:dc="http://purl.org/dc/elements/1.1/"
   xmlns:cc="http://creativecommons.org/ns#"
   xmlns:rdf="http://www.w3.org/1999/02/22-rdf-syntax-ns#"
   xmlns:svg="http://www.w3.org/2000/svg"
   xmlns="http://www.w3.org/2000/svg"
   xmlns:xlink="http://www.w3.org/1999/xlink"
   xmlns:sodipodi="http://sodipodi.sourceforge.net/DTD/sodipodi-0.dtd"
   xmlns:inkscape="http://www.inkscape.org/namespaces/inkscape"
   width="256"
   height="256"
   id="svg3857"
   version="1.1"
   inkscape:version="0.47 r22583"
   sodipodi:docname="img_congratulations.svg"
   inkscape:export-filename="/home/cattaka/myfile/mydoc/eclipseAndroid/HungryCatBallMisc/resources/img/img_congratulations.png"
   inkscape:export-xdpi="90"
   inkscape:export-ydpi="90">
  <defs
     id="defs3859">
    <inkscape:perspective
       sodipodi:type="inkscape:persp3d"
       inkscape:vp_x="0 : 526.18109 : 1"
       inkscape:vp_y="0 : 1000 : 0"
       inkscape:vp_z="744.09448 : 526.18109 : 1"
       inkscape:persp3d-origin="372.04724 : 350.78739 : 1"
       id="perspective3865" />
    <inkscape:perspective
       id="perspective3875"
       inkscape:persp3d-origin="0.5 : 0.33333333 : 1"
       inkscape:vp_z="1 : 0.5 : 1"
       inkscape:vp_y="0 : 1000 : 0"
       inkscape:vp_x="0 : 0.5 : 1"
       sodipodi:type="inkscape:persp3d" />
    <inkscape:perspective
       id="perspective4179"
       inkscape:persp3d-origin="0.5 : 0.33333333 : 1"
       inkscape:vp_z="1 : 0.5 : 1"
       inkscape:vp_y="0 : 1000 : 0"
       inkscape:vp_x="0 : 0.5 : 1"
       sodipodi:type="inkscape:persp3d" />
    <inkscape:perspective
       id="perspective4991"
       inkscape:persp3d-origin="0.5 : 0.33333333 : 1"
       inkscape:vp_z="1 : 0.5 : 1"
       inkscape:vp_y="0 : 1000 : 0"
       inkscape:vp_x="0 : 0.5 : 1"
       sodipodi:type="inkscape:persp3d" />
    <inkscape:perspective
       id="perspective5013"
       inkscape:persp3d-origin="0.5 : 0.33333333 : 1"
       inkscape:vp_z="1 : 0.5 : 1"
       inkscape:vp_y="0 : 1000 : 0"
       inkscape:vp_x="0 : 0.5 : 1"
       sodipodi:type="inkscape:persp3d" />
    <inkscape:perspective
       id="perspective6708"
       inkscape:persp3d-origin="0.5 : 0.33333333 : 1"
       inkscape:vp_z="1 : 0.5 : 1"
       inkscape:vp_y="0 : 1000 : 0"
       inkscape:vp_x="0 : 0.5 : 1"
       sodipodi:type="inkscape:persp3d" />
    <inkscape:perspective
       id="perspective6708-4"
       inkscape:persp3d-origin="0.5 : 0.33333333 : 1"
       inkscape:vp_z="1 : 0.5 : 1"
       inkscape:vp_y="0 : 1000 : 0"
       inkscape:vp_x="0 : 0.5 : 1"
       sodipodi:type="inkscape:persp3d" />
  </defs>
  <sodipodi:namedview
     id="base"
     pagecolor="#ffffff"
     bordercolor="#666666"
     borderopacity="1.0"
     inkscape:pageopacity="0.0"
     inkscape:pageshadow="2"
     inkscape:zoom="1.4"
     inkscape:cx="120.89855"
     inkscape:cy="124.10615"
     inkscape:document-units="px"
     inkscape:current-layer="layer1"
     showgrid="false"
     inkscape:window-width="1024"
     inkscape:window-height="695"
     inkscape:window-x="1280"
     inkscape:window-y="25"
     inkscape:window-maximized="1">
    <inkscape:grid
       type="xygrid"
       id="grid3940"
       empspacing="5"
       visible="true"
       enabled="true"
       snapvisiblegridlinesonly="true"
       spacingx="0.8px"
       spacingy="0.8px" />
  </sodipodi:namedview>
  <metadata
     id="metadata3862">
    <rdf:RDF>
      <cc:Work
         rdf:about="">
        <dc:format>image/svg+xml</dc:format>
        <dc:type
           rdf:resource="http://purl.org/dc/dcmitype/StillImage" />
        <dc:title></dc:title>
      </cc:Work>
    </rdf:RDF>
  </metadata>
  <g
     inkscape:label="レイヤー 1"
     inkscape:groupmode="layer"
     id="layer1"
     transform="translate(0,-796.36218)">
    <path
       style="fill:none;stroke:#000000;stroke-width:1px;stroke-linecap:butt;stroke-linejoin:miter;stroke-opacity:1"
       d="m 24,772.36218 c 0,0 40,-48 104,-48 64,0 104,48 104,48"
       id="path5035"
       sodipodi:nodetypes="csc" />
    <g
       id="g5040"
       transform="matrix(0.96592583,0.25881905,-0.25881905,0.96592583,253.20902,5.2117519)">
      <path
         sodipodi:nodetypes="czzzz"
         id="path2822"
         d="m 119.91298,882.71202 c -27.39428,0 -51.3392,38.64216 -51.3392,64.40356 0,27.993 29.94788,38.6422 51.3392,38.6422 21.39134,0 51.33922,-13.435 51.33922,-38.6422 0,-25.7614 -23.94494,-64.40356 -51.3392,-64.40356 z"
         style="fill:#ffd42a;stroke:#000000;stroke-width:2px;stroke-linecap:butt;stroke-linejoin:miter;stroke-opacity:1" />
      <path
         transform="matrix(0.64174018,0,0,0.64403578,-2.01764,881.19066)"
         d="m 170,52.362183 c 0,5.522847 -2.23858,10 -5,10 -2.76142,0 -5,-4.477153 -5,-10 0,-5.522848 2.23858,-10 5,-10 2.76142,0 5,4.477152 5,10 z"
         sodipodi:ry="10"
         sodipodi:rx="5"
         sodipodi:cy="52.362183"
         sodipodi:cx="165"
         id="path2847"
         style="fill:#000000"
         sodipodi:type="arc" />
      <path
         transform="matrix(0.64174018,0,0,0.64403578,30.06936,881.19066)"
         d="m 170,52.362183 c 0,5.522847 -2.23858,10 -5,10 -2.76142,0 -5,-4.477153 -5,-10 0,-5.522848 2.23858,-10 5,-10 2.76142,0 5,4.477152 5,10 z"
         sodipodi:ry="10"
         sodipodi:rx="5"
         sodipodi:cy="52.362183"
         sodipodi:cx="165"
         id="path2847-8"
         style="fill:#000000"
         sodipodi:type="arc" />
      <path
         sodipodi:nodetypes="czzzz"
         id="path2871"
         d="m 119.91298,921.35418 c 2.30392,0 6.22578,0.176 6.4174,2.576 0.1916,2.4004 -3.92276,3.8644 -6.4174,3.8644 -2.49462,0 -6.60902,-1.464 -6.4174,-3.8644 0.1916,-2.4 4.1135,-2.576 6.4174,-2.576 z"
         style="fill:#aa4400;stroke:#000000;stroke-width:2px;stroke-linecap:butt;stroke-linejoin:miter;stroke-opacity:1" />
      <path
         sodipodi:nodetypes="czz"
         id="path2943"
         d="m 107.07818,886.57624 c 0,0 -17.61116,-16.04236 -25.6696,-10.3046 -8.05842,5.73774 0,33.48974 0,33.48974"
         style="fill:#ffd42a;stroke:#000000;stroke-width:2px;stroke-linecap:butt;stroke-linejoin:miter;stroke-opacity:1" />
      <path
         sodipodi:nodetypes="czz"
         id="path2943-1"
         d="m 103.22774,889.15236 c 0,0 -12.32782,-9.83618 -17.96872,-6.01104 -5.6409,3.8252 0,21.46786 0,21.46786"
         style="fill:#f4d7d7;stroke:none" />
      <path
         sodipodi:nodetypes="czz"
         id="path2943-93"
         d="m 132.74778,886.57624 c 0,0 17.61118,-16.04236 25.66962,-10.3046 8.05842,5.73774 0,33.48974 0,33.48974"
         style="fill:#ffd42a;stroke:#000000;stroke-width:2px;stroke-linecap:butt;stroke-linejoin:miter;stroke-opacity:1" />
      <path
         sodipodi:nodetypes="czz"
         id="path2943-1-8"
         d="m 136.59822,889.15236 c 0,0 12.32784,-9.83618 17.96874,-6.01104 5.64088,3.8252 0,21.46786 0,21.46786"
         style="fill:#f4d7d7;stroke:none" />
      <path
         sodipodi:nodetypes="csc"
         id="path2858"
         d="m 111.81344,884.22874 c 0,0 1.68214,15.22824 2.96062,15.25844 1.28848,0.03 0.24274,-15.89912 0.24274,-15.89912"
         style="fill:#ff6600;stroke:none" />
      <path
         sodipodi:nodetypes="csc"
         id="path2858-3"
         d="m 128.24174,884.1951 c 0,0 -2.2191,15.22808 -3.49758,15.25828 -1.28848,0.03 -0.34646,-15.89896 -0.34646,-15.89896"
         style="fill:#ff6600;stroke:none" />
      <path
         sodipodi:nodetypes="csc"
         id="path2858-1"
         d="m 111.58424,884.1951 c 0,0 2.32282,15.22808 3.6013,15.25848 1.28848,0.03 0.24274,-15.89916 0.24274,-15.89916"
         style="fill:#ff6600;stroke:none" />
      <path
         sodipodi:nodetypes="csc"
         id="path2858-1-7"
         d="m 73.78456,924.55738 c 0,0 14.73548,3.2034 14.73548,1.9222 0,-1.2814 -12.81346,-6.4068 -12.81346,-6.4068"
         style="fill:#ff6600;stroke:none" />
      <path
         sodipodi:nodetypes="csc"
         id="path2858-1-7-7"
         d="m 166.04142,924.55738 c 0,0 -14.73546,3.2034 -14.73546,1.9222 0,-1.2814 12.81344,-6.4068 12.81344,-6.4068"
         style="fill:#ff6600;stroke:none" />
      <path
         sodipodi:nodetypes="cszss"
         id="path2822-9"
         d="m 119.91298,943.77758 c -16.0168,0 -25.6269,12.8136 -25.6269,22.4236 0,12.8134 15.838,16.0168 25.6269,16.0168 9.6101,0 25.62692,-3.2034 25.62692,-16.0168 0,-9.7446 -9.6101,-22.4236 -25.62692,-22.4236 z"
         style="fill:#ffffff;stroke:none" />
      <path
         sodipodi:nodetypes="css"
         id="path2919"
         d="m 80,952.36218 c 0,0 -23.419118,-13.16176 -20,-20 4,-8 28,4 28,4"
         style="fill:#ffd42a;stroke:#000000;stroke-width:1.99999988px;stroke-linecap:butt;stroke-linejoin:miter;stroke-opacity:1" />
      <path
         transform="matrix(0.25669607,0,0,0.25761431,60.788565,899.45143)"
         d="m 170,52.362183 c 0,5.522847 -2.23858,10 -5,10 -2.76142,0 -5,-4.477153 -5,-10 0,-5.522848 2.23858,-10 5,-10 2.76142,0 5,4.477152 5,10 z"
         sodipodi:ry="10"
         sodipodi:rx="5"
         sodipodi:cy="52.362183"
         sodipodi:cx="165"
         id="path2847-9"
         style="fill:#ffffff"
         sodipodi:type="arc" />
      <path
         transform="matrix(0.25669607,0,0,0.25761431,92.788565,899.45143)"
         d="m 170,52.362183 c 0,5.522847 -2.23858,10 -5,10 -2.76142,0 -5,-4.477153 -5,-10 0,-5.522848 2.23858,-10 5,-10 2.76142,0 5,4.477152 5,10 z"
         sodipodi:ry="10"
         sodipodi:rx="5"
         sodipodi:cy="52.362183"
         sodipodi:cx="165"
         id="path2847-8-2"
         style="fill:#ffffff"
         sodipodi:type="arc" />
      <path
         sodipodi:nodetypes="ccscc"
         transform="translate(0,796.36218)"
         id="path4196"
         d="M 119.82143,132.25 108,144 c 0,0 4,8 12,8 8,0 12,-8 12,-8 l -12.17857,-11.75 z"
         style="fill:#ff0000;fill-opacity:1;stroke:#000000;stroke-width:2;stroke-linecap:butt;stroke-linejoin:miter;stroke-miterlimit:4;stroke-opacity:1;stroke-dasharray:none" />
      <path
         sodipodi:nodetypes="css"
         id="path2873-3"
         d="m 119.6838,927.79458 c 0,0 4.0789,12.9956 13.06398,12.9956 10.2685,0 12.83482,-6.5554 12.83482,-6.5554"
         style="fill:#ffd42a;stroke:#000000;stroke-width:2px;stroke-linecap:butt;stroke-linejoin:miter;stroke-opacity:1" />
      <path
         sodipodi:nodetypes="css"
         id="path2873"
         d="m 120.14218,927.79458 c 0,0 -4.0789,12.9956 -13.064,12.9956 -10.26848,0 -12.8348,-6.5554 -12.8348,-6.5554"
         style="fill:#ffd42a;stroke:#000000;stroke-width:2px;stroke-linecap:butt;stroke-linejoin:miter;stroke-opacity:1" />
      <path
         sodipodi:nodetypes="css"
         id="path2919-0"
         d="m 160,952.36218 c 0,0 23.41912,-13.16176 20,-20 -4,-8 -28,4 -28,4"
         style="fill:#ffd42a;stroke:#000000;stroke-width:1.99999988px;stroke-linecap:butt;stroke-linejoin:miter;stroke-opacity:1" />
    </g>
    <text
       xml:space="preserve"
       style="font-size:33px;font-style:normal;font-variant:normal;font-weight:normal;font-stretch:normal;text-align:start;line-height:100%;writing-mode:lr-tb;text-anchor:start;fill:#ffff00;fill-opacity:1;stroke:#ff0000;font-family:Paper Cuts 2;-inkscape-font-specification:'Paper Cuts 2,'"
       id="text5027"
       sodipodi:linespacing="100%"
       transform="translate(0,120)"><textPath
         xlink:href="#path5035"
         id="textPath5037"><tspan
           id="tspan5033"
           dx="18.968819"
           style="font-size:33px;font-style:normal;font-variant:normal;font-weight:normal;font-stretch:normal;text-align:start;line-height:100%;writing-mode:lr-tb;text-anchor:start;fill:#ffff00;stroke:#ff0000;font-family:Paper Cuts 2;-inkscape-font-specification:'Paper Cuts 2,'">Congratulations</tspan></textPath></text>
    <text
       xml:space="preserve"
       style="font-size:50px;font-style:normal;font-variant:normal;font-weight:normal;font-stretch:normal;text-align:start;line-height:100%;writing-mode:lr-tb;text-anchor:start;fill:#000000;fill-opacity:1;stroke:none;font-family:ChunkFive;-inkscape-font-specification:ChunkFive"
       x="16"
       y="1020.3622"
       id="text7860"
       sodipodi:linespacing="100%"><tspan
         sodipodi:role="line"
         id="tspan7862"
         x="16"
         y="1020.3622"
         style="font-size:25px;font-style:normal;font-variant:normal;font-weight:normal;font-stretch:normal;text-align:start;line-height:100%;writing-mode:lr-tb;text-anchor:start;fill:#ffff00;stroke:#ff0000;font-family:Paper Cuts 2;-inkscape-font-specification:'Paper Cuts 2,'">Thank you for playing!</tspan></text>
  </g>
</svg>
